<svg id="clockl" xmlns="http://www.w3.org/2000/svg" width="20.102" height="20.119" viewBox="0 0 20.102 20.119">
  <g id="Group_574" data-name="Group 574">
    <path id="Path_383" data-name="Path 383" d="M601.555-1297.479a9.97,9.97,0,0,1,10.021,10.076,9.976,9.976,0,0,1-10.082,10.039,9.981,9.981,0,0,1-10.021-10.1A9.979,9.979,0,0,1,601.555-1297.479Zm.707,9.778v-.885c0-1.66.005-3.32,0-4.98,0-.641-.245-.9-.8-.908s-.818.24-.821.882q-.015,3.3,0,6.594c0,.683.246.915.943.918q2.49.013,4.98,0c.632,0,.912-.266.917-.8.005-.555-.253-.806-.9-.812-1.146-.013-2.292,0-3.437-.005Z" transform="translate(-591.473 1297.484)" fill="#3524c6"/>
  </g>
</svg>
