<svg xmlns="http://www.w3.org/2000/svg" xmlns:xlink="http://www.w3.org/1999/xlink" width="61.142" height="53.746" viewBox="0 0 61.142 53.746">
  <defs>
    <filter id="Rectangle_1615" x="0" y="0" width="61.142" height="53.746" filterUnits="userSpaceOnUse">
      <feOffset dy="3" input="SourceAlpha"/>
      <feGaussianBlur stdDeviation="3" result="blur"/>
      <feFlood flood-opacity="0.161"/>
      <feComposite operator="in" in2="blur"/>
      <feComposite in="SourceGraphic"/>
    </filter>
  </defs>
  <g id="data_points" data-name="data points" transform="translate(9 6)">
    <g id="Group_3827" data-name="Group 3827" transform="translate(-329.106 -8580.852)">
      <g id="Group_3826" data-name="Group 3826" transform="translate(2037.169 8302.781) rotate(90)">
        <g transform="matrix(0, -1, 1, 0, 272.07, 1717.06)" filter="url(#Rectangle_1615)">
          <g id="Rectangle_1615-2" data-name="Rectangle 1615" transform="translate(52.14 6) rotate(90)" fill="#fff" stroke="#3328c3" stroke-width="1">
            <rect width="35.746" height="43.142" rx="2" stroke="none"/>
            <rect x="0.5" y="0.5" width="34.746" height="42.142" rx="1.5" fill="none"/>
          </g>
        </g>
      </g>
      <g id="Subtraction_41" data-name="Subtraction 41" transform="translate(322 8580.852)" fill="#3328c3">
        <path d="M 49.74790191650391 6.64870023727417 L 7.606400489807129 6.64870023727417 L 7.606400489807129 1.999800086021423 C 7.606400489807129 1.172810077667236 8.279211044311523 0.5000001192092896 9.106201171875 0.5000001192092896 L 48.24810028076172 0.5000001192092896 C 49.07509231567383 0.5000001192092896 49.74790191650391 1.172810077667236 49.74790191650391 1.999800086021423 L 49.74790191650391 6.64870023727417 Z" stroke="none"/>
        <path d="M 49.24790191650391 6.14870023727417 L 49.24790191650391 1.999800086021423 C 49.24790191650391 1.44851016998291 48.79938888549805 1.00000011920929 48.24810028076172 1.00000011920929 L 9.106201171875 1.00000011920929 C 8.554910659790039 1.00000011920929 8.106400489807129 1.44851016998291 8.106400489807129 1.999800086021423 L 8.106400489807129 6.14870023727417 L 49.24790191650391 6.14870023727417 M 50.24790191650391 7.14870023727417 L 7.106400489807129 7.14870023727417 L 7.106400489807129 1.999800086021423 C 7.106400489807129 0.8971101045608521 8.003510475158691 1.186370823802463e-07 9.106201171875 1.186370823802463e-07 L 48.24810028076172 1.186370823802463e-07 C 49.35079193115234 1.186370823802463e-07 50.24790191650391 0.8971101045608521 50.24790191650391 1.999800086021423 L 50.24790191650391 7.14870023727417 Z" stroke="none" fill="#3328c3"/>
      </g>
      <path id="Path_3730" data-name="Path 3730" d="M337.9,8585.073v31.888" transform="translate(0.6 -1)" fill="none" stroke="#3328c3" stroke-width="1"/>
      <path id="Path_3738" data-name="Path 3738" d="M337.9,8585.073v31.888" transform="translate(8.6 -1)" fill="none" stroke="#3328c3" stroke-width="1"/>
      <path id="Path_3739" data-name="Path 3739" d="M337.9,8585.073v31.888" transform="translate(16.6 -1)" fill="none" stroke="#3328c3" stroke-width="1"/>
      <path id="Path_3740" data-name="Path 3740" d="M337.9,8585.073v31.888" transform="translate(25.6 -1)" fill="none" stroke="#3328c3" stroke-width="1"/>
      <path id="Path_3733" data-name="Path 3733" d="M0,0V42.466" transform="translate(372.248 8594.5) rotate(90)" fill="none" stroke="#3328c3" stroke-width="1"/>
      <path id="Path_3734" data-name="Path 3734" d="M0,0V42.466" transform="translate(372.248 8601.5) rotate(90)" fill="none" stroke="#3328c3" stroke-width="1"/>
      <path id="Path_3735" data-name="Path 3735" d="M0,0V42.466" transform="translate(372.248 8608.5) rotate(90)" fill="none" stroke="#3328c3" stroke-width="1"/>
    </g>
  </g>
</svg>
