<svg id="Health_Data_Governance_icon" data-name="Health Data Governance_icon" xmlns="http://www.w3.org/2000/svg" xmlns:xlink="http://www.w3.org/1999/xlink" width="294" height="122" viewBox="0 0 294 122">
  <defs>
    <linearGradient id="linear-gradient" x1="0.883" y1="0.4" x2="0.067" y2="0.386" gradientUnits="objectBoundingBox">
      <stop offset="0" stop-color="#f157ff"/>
      <stop offset="1" stop-color="#1d61fe"/>
    </linearGradient>
    <clipPath id="clip-path">
      <rect id="Rectangle_3970" data-name="Rectangle 3970" width="294" height="122" transform="translate(16882.176 -20995.324)" fill="#fff" stroke="#707070" stroke-width="1"/>
    </clipPath>
    <clipPath id="clip-path-2">
      <rect id="Rectangle_3969" data-name="Rectangle 3969" width="2119" height="177" transform="translate(2119.235 177.16) rotate(180)" fill="url(#linear-gradient)"/>
    </clipPath>
    <clipPath id="clip-path-3">
      <rect id="Rectangle_3968" data-name="Rectangle 3968" width="682.506" height="646.648" fill="none"/>
    </clipPath>
    <clipPath id="clip-path-5">
      <rect id="Rectangle_3965" data-name="Rectangle 3965" width="563.152" height="482.181" fill="none"/>
    </clipPath>
    <clipPath id="clip-path-6">
      <rect id="Rectangle_3963" data-name="Rectangle 3963" width="12.569" height="12.31" fill="#fff"/>
    </clipPath>
    <clipPath id="clip-path-7">
      <rect id="Rectangle_3964" data-name="Rectangle 3964" width="18.831" height="18.438" fill="#fff"/>
    </clipPath>
    <filter id="Path_6267" x="208.868" y="16.001" width="83.395" height="97.516" filterUnits="userSpaceOnUse">
      <feOffset dy="3" input="SourceAlpha"/>
      <feGaussianBlur stdDeviation="3" result="blur"/>
      <feFlood flood-color="#1d61fe" flood-opacity="0.271"/>
      <feComposite operator="in" in2="blur"/>
      <feComposite in="SourceGraphic"/>
    </filter>
    <filter id="Path_6271" x="-4.799" y="12.186" width="99.032" height="99.032" filterUnits="userSpaceOnUse">
      <feOffset dy="3" input="SourceAlpha"/>
      <feGaussianBlur stdDeviation="3" result="blur-2"/>
      <feFlood flood-color="#2063fe" flood-opacity="0.341"/>
      <feComposite operator="in" in2="blur-2"/>
      <feComposite in="SourceGraphic"/>
    </filter>
  </defs>
  <g id="Mask_Group_4122" data-name="Mask Group 4122" transform="translate(-16882.176 20995.324)" clip-path="url(#clip-path)" style="mix-blend-mode: normal;isolation: isolate">
    <g id="Mask_Group_4121" data-name="Mask Group 4121" transform="translate(16396.941 -21022.484)" clip-path="url(#clip-path-2)">
      <g id="Group_5859" data-name="Group 5859" transform="translate(290.489 -261.036)">
        <g id="Group_5858" data-name="Group 5858" clip-path="url(#clip-path-3)">
          <g id="Group_5849" data-name="Group 5849" transform="translate(48.45 80.879)">
            <g id="Group_5848" data-name="Group 5848" clip-path="url(#clip-path-5)">
              <path id="Path_6243" data-name="Path 6243" d="M1.7,0H101.69a1.7,1.7,0,0,1,1.7,1.7V101.69a1.7,1.7,0,0,1-1.7,1.7H1.7a1.7,1.7,0,0,1-1.7-1.7V1.7A1.7,1.7,0,0,1,1.7,0Z" transform="translate(240.597 217.067)" fill="#fff" stroke="#1d61fe" stroke-linecap="round" stroke-width="1.589"/>
              <line id="Line_433" data-name="Line 433" x2="0.898" transform="translate(344.627 217.067)" fill="none" stroke="#d258fa" stroke-linecap="round" stroke-width="1.026"/>
              <line id="Line_434" data-name="Line 434" y1="0.898" transform="translate(241.274 320.454)" fill="none" stroke="#d258fa" stroke-linecap="round" stroke-width="1.026"/>
              <path id="Path_6244" data-name="Path 6244" d="M267.655,373.937a2.335,2.335,0,1,1,2.335,2.335,2.336,2.336,0,0,1-2.335-2.335Z" transform="translate(-28.718 -53.484)" fill="#d258fa"/>
              <path id="Path_6245" data-name="Path 6245" d="M269.989,371.6a2.336,2.336,0,1,1-2.335,2.336h0a2.335,2.335,0,0,1,2.333-2.335Z" transform="translate(-28.718 -53.484)" fill="none" stroke="#d258fa" stroke-width="0.512"/>
              <line id="Line_435" data-name="Line 435" x1="0.898" transform="translate(240.079 320.454)" fill="none" stroke="#d258fa" stroke-linecap="round" stroke-width="1.026"/>
              <path id="Path_6246" data-name="Path 6246" d="M269.519,377.333h-48.3V325.561" transform="translate(-32.141 -56.878)" fill="none" stroke="#fff" stroke-linecap="round" stroke-width="1" stroke-dasharray="3.178 2.384"/>
              <path id="Path_6247" data-name="Path 6247" d="M269.8,377.5a3.479,3.479,0,1,0-3.48-3.48,3.478,3.478,0,0,0,3.48,3.48" transform="translate(-28.816 -53.562)" fill="#fff"/>
              <path id="Path_6248" data-name="Path 6248" d="M369.442,376.266h48.3V324.494" transform="translate(-21.214 -56.957)" fill="none" stroke="#fff" stroke-linecap="round" stroke-width="1" stroke-dasharray="3.178 2.384"/>
              <path id="Path_6249" data-name="Path 6249" d="M366.327,376.43a3.479,3.479,0,1,1,3.48-3.48,3.478,3.478,0,0,1-3.48,3.48" transform="translate(-21.7 -53.641)" fill="#ce5ffa"/>
              <path id="Path_6250" data-name="Path 6250" d="M366.327,376.43a3.479,3.479,0,1,1,3.48-3.48,3.478,3.478,0,0,1-3.48,3.48" transform="translate(-21.7 -154.301)" fill="#ce5ffa"/>
              <path id="Path_6251" data-name="Path 6251" d="M366.327,376.43a3.479,3.479,0,1,1,3.48-3.48,3.478,3.478,0,0,1-3.48,3.48" transform="translate(-21.7 -53.641)" fill="none" stroke="#fff" stroke-width="1.589"/>
              <path id="Path_6252" data-name="Path 6252" d="M269.8,377.5a3.479,3.479,0,1,1,3.48-3.48,3.478,3.478,0,0,1-3.48,3.48" transform="translate(-28.816 -53.562)" fill="#ce5ffa"/>
              <path id="Path_6253" data-name="Path 6253" d="M269.8,377.5a3.479,3.479,0,1,1,3.48-3.48,3.478,3.478,0,0,1-3.48,3.48" transform="translate(-28.816 -155.369)" fill="#ce5ffa"/>
              <path id="Path_6254" data-name="Path 6254" d="M269.8,377.5a3.479,3.479,0,1,1,3.48-3.48A3.478,3.478,0,0,1,269.8,377.5Z" transform="translate(-28.816 -53.562)" fill="none" stroke="#fff" stroke-width="1.589"/>
              <path id="Path_6255" data-name="Path 6255" d="M269.518,325.561h-48.3v51.773" transform="translate(-32.141 -106.913)" fill="none" stroke="#fff" stroke-linecap="round" stroke-width="1" stroke-dasharray="3.178 2.384"/>
              <path id="Path_6256" data-name="Path 6256" d="M269.8,370.539a3.479,3.479,0,1,0,3.48,3.48A3.478,3.478,0,0,0,269.8,370.539Z" transform="translate(-28.815 -155.371)" fill="none" stroke="#fff" stroke-width="1.589"/>
              <path id="Path_6257" data-name="Path 6257" d="M221.217,325.561h48.3v51.775" transform="translate(127.014 -106.914)" fill="none" stroke="#fff" stroke-linecap="round" stroke-width="1" stroke-dasharray="3.178 2.384"/>
              <path id="Path_6258" data-name="Path 6258" d="M269.8,370.539a3.479,3.479,0,1,1-3.48,3.48A3.478,3.478,0,0,1,269.8,370.539Z" transform="translate(74.831 -155.37)" fill="none" stroke="#fff" stroke-width="1.589"/>
              <path id="Path_6259" data-name="Path 6259" d="M322.692,363.594c-15.252,0-27.663-4.013-27.663-8.948a2.911,2.911,0,0,1,.026-.386h-.026V337.135h.06c.464,2.279,3.538,4.4,8.663,5.971a74.558,74.558,0,0,0,37.882,0c5.125-1.569,8.2-3.691,8.663-5.971h.059v17.12h-.027a2.64,2.64,0,0,1,.027.391c0,4.935-12.408,8.947-27.663,8.947" transform="translate(-29.773 -54.213)" fill="#1d61fe"/>
              <path id="Path_6260" data-name="Path 6260" d="M322.692,346.13a66.134,66.134,0,0,1-19.56-2.619c-5.224-1.691-8.1-3.939-8.1-6.331a2.739,2.739,0,0,1,.024-.386h-.024V319.671c0,2.566,2.88,4.979,8.11,6.8a61.828,61.828,0,0,0,19.554,2.821c15.255,0,27.667-4.317,27.667-9.623v17.119h-.027a2.957,2.957,0,0,1,.027.386c0,2.392-2.878,4.641-8.1,6.331a66.185,66.185,0,0,1-19.562,2.617" transform="translate(-29.771 -57.947)" fill="#1d61fe"/>
              <path id="Path_6261" data-name="Path 6261" d="M322.7,329.656c-15.256,0-27.667-4.013-27.667-8.95a2.431,2.431,0,0,1,.027-.386h-.027V303.2h.06c.461,2.279,3.537,4.4,8.661,5.971a74.523,74.523,0,0,0,37.887,0c5.125-1.569,8.2-3.691,8.661-5.971h.06v17.124h-.027a2.9,2.9,0,0,1,.027.386c0,4.934-12.407,8.945-27.662,8.945" transform="translate(-29.773 -61.468)" fill="#1d61fe"/>
              <path id="Path_6262" data-name="Path 6262" d="M322.693,292.666c15.279,0,27.666,4.039,27.666,9.021s-12.383,9.023-27.666,9.023-27.665-4.041-27.665-9.023,12.383-9.021,27.665-9.021" transform="translate(-29.773 -63.718)" fill="#1d61fe"/>
              <path id="Path_6263" data-name="Path 6263" d="M290.884,239.088a25.509,25.509,0,1,0,25.51-25.511,25.51,25.51,0,0,0-25.51,25.511" transform="translate(-6.182 9.04)" fill="#3423c5" stroke="#fff" stroke-width="3"/>
              <g id="Group_5845" data-name="Group 5845" transform="translate(313.134 247.228)">
                <g id="Group_5844" data-name="Group 5844" transform="translate(0 0)" clip-path="url(#clip-path-6)">
                  <path id="Path_6264" data-name="Path 6264" d="M332.706,246.22a4.855,4.855,0,0,0-.524-1.2l.787-1.647-2.057-1.571-1.383,1.2a5.043,5.043,0,0,0-1.31-.187l-1.084-1.608-2.395.973.375,1.869a4.387,4.387,0,0,0-.9,1.16l-1.909.112-.337,2.545,1.833.636a4.92,4.92,0,0,0,.523,1.2l-.787,1.647,2.056,1.571,1.384-1.2a5,5,0,0,0,1.31.189l1.086,1.608,2.4-.973-.376-1.871a4.456,4.456,0,0,0,.9-1.159l1.907-.113.337-2.544Zm-2.284,2.805a2.75,2.75,0,1,1-.525-3.854h0a2.747,2.747,0,0,1,.524,3.851v0" transform="translate(-321.97 -241.206)" fill="#fff"/>
                </g>
              </g>
              <g id="Group_5847" data-name="Group 5847" transform="translate(294.405 236.557)">
                <g id="Group_5846" data-name="Group 5846" transform="translate(0 0)" clip-path="url(#clip-path-7)">
                  <path id="Path_6265" data-name="Path 6265" d="M319.16,237.953a7.192,7.192,0,0,0-.787-1.793l1.182-2.467-3.084-2.353-2.073,1.793a7.6,7.6,0,0,0-1.962-.28l-1.624-2.41-3.586,1.457.56,2.8a6.585,6.585,0,0,0-1.344,1.737l-2.857.169-.5,3.813,2.746.952a7.243,7.243,0,0,0,.783,1.794l-1.176,2.465,3.082,2.355,2.073-1.794a7.535,7.535,0,0,0,1.961.281l1.627,2.409,3.586-1.457-.563-2.8a6.568,6.568,0,0,0,1.345-1.733l2.858-.169.5-3.811Zm-3.418,4.2a4.119,4.119,0,1,1-.787-5.773,4.12,4.12,0,0,1,.787,5.773h0" transform="translate(-303.078 -230.443)" fill="#fff"/>
                </g>
              </g>
            </g>
          </g>
          <g id="Group_5855" data-name="Group 5855">
            <g id="Group_5854" data-name="Group 5854" clip-path="url(#clip-path-3)">
              <path id="Path_6266" data-name="Path 6266" d="M0,0H46.423V32.139H0Z" transform="translate(420.247 330.829)" fill="#1d61fe"/>
              <g transform="matrix(1, 0, 0, 1, 194.74, 288.2)" filter="url(#Path_6267)">
                <path id="Path_6267-2" data-name="Path 6267" d="M426.72,288.9h1.06a5.5,5.5,0,0,1,1.739,1.023,1.213,1.213,0,0,0,.11.074,32.524,32.524,0,0,0,4.477,2.466,45.089,45.089,0,0,0,7.1,2.532,55.672,55.672,0,0,0,7.354,1.445c2.059.264,4.122.44,6.2.507.926.029,1.852.068,2.778.074a2.612,2.612,0,0,1,2.407,2.575c-.016.4.01.795.01,1.2,0,1.221.025,2.442-.017,3.663-.046,1.395-.155,2.787-.235,4.18-.067,1.131-.1,2.263-.21,3.389-.209,2.107-.426,4.213-.712,6.314-.277,2.039-.6,4.075-.984,6.1a90.324,90.324,0,0,1-2.095,8.933c-.538,1.8-1.109,3.6-1.687,5.386-.233.713-.512,1.407-.792,2.1-.456,1.148-.885,2.308-1.4,3.429a55.877,55.877,0,0,1-3.863,7.286c-.843,1.292-1.7,2.58-2.612,3.824a31.879,31.879,0,0,1-3.583,4.124c-.964.927-1.933,1.854-2.96,2.708-.926.768-1.926,1.451-2.907,2.15a26.954,26.954,0,0,1-4.039,2.346c-1.324.633-2.713,1.133-4.069,1.692h-.975c-1.013-.4-2.034-.773-3.035-1.2a28.193,28.193,0,0,1-5.613-3.133,46.265,46.265,0,0,1-3.754-3,39.772,39.772,0,0,1-3.234-3.248,46.476,46.476,0,0,1-3.953-5.191,56.607,56.607,0,0,1-3.358-5.852,65.508,65.508,0,0,1-2.845-6.6c-.805-2.152-1.535-4.328-2.138-6.542-.584-2.142-1.124-4.3-1.594-6.469-.44-2.026-.784-4.073-1.136-6.116-.234-1.366-.442-2.73-.606-4.1-.193-1.621-.341-3.243-.479-4.872-.137-1.655-.242-3.314-.341-4.971q-.081-1.3-.1-2.6c-.03-1.633-.078-3.267-.049-4.9a2.6,2.6,0,0,1,2.579-2.613l.128,0c.809-.009,1.62-.027,2.423-.072,1.379-.076,2.759-.145,4.134-.272,1.332-.123,2.661-.283,3.983-.487a50.283,50.283,0,0,0,6.03-1.329,43.783,43.783,0,0,0,7.03-2.6,27.062,27.062,0,0,0,4.575-2.653,4.1,4.1,0,0,1,1.27-.69" transform="translate(-176.69 -266.9)" fill="#1d61fe"/>
              </g>
              <g id="Group_5851" data-name="Group 5851" transform="translate(434.728 333.02)">
                <g id="Group_5850" data-name="Group 5850" transform="translate(0 0)">
                  <path id="Path_6268" data-name="Path 6268" d="M.006,21.319v4.868c0,.4.022.8.053,1.2a2.8,2.8,0,0,0,2.393,2.449c.324.032.652.049.977.049,1.055,0,2.1-.017,3.156-.017.912,0,1.823.017,2.734.017,1.03,0,2.06-.013,3.092-.014.944,0,1.887.013,2.831.012q1.628,0,3.251-.017a5.532,5.532,0,0,0,1.1-.046,2.841,2.841,0,0,0,2.322-2.848c.017-3.767.006-7.535,0-11.3a2.635,2.635,0,0,0-.27-1.2A2.823,2.823,0,0,0,19.6,12.864c-.393-.074-.4-.079-.4-.379,0-1.241-.013-2.482,0-3.723a10.008,10.008,0,0,0-.171-2.177,8.1,8.1,0,0,0-2.948-4.8A7.825,7.825,0,0,0,12.463.146,8.137,8.137,0,0,0,9.638.1a8.28,8.28,0,0,0-4.7,2.549,7.974,7.974,0,0,0-2.12,4.534,21.627,21.627,0,0,0-.079,2.542c-.007.891.007,1.784.013,2.677,0,.283-.036.367-.351.433a2.745,2.745,0,0,0-2.212,1.9A4.084,4.084,0,0,0,.01,15.927C-.007,17.723,0,19.519,0,21.316" transform="translate(0 0)" fill="#fff"/>
                  <path id="Path_6269" data-name="Path 6269" d="M8.9,11.564H5.25c-.556,0-.559,0-.559-.563,0-1.284-.006-2.569,0-3.853a4.46,4.46,0,0,1,.652-2.361,4.1,4.1,0,0,1,2.295-1.78,3.885,3.885,0,0,1,3.017.207,4,4,0,0,1,2.355,3.264,13.793,13.793,0,0,1,.056,1.467c0,1.055,0,2.108-.007,3.167,0,.439-.009.445-.432.445" transform="translate(2.086 1.244)" fill="#1d61fe"/>
                  <path id="Path_6270" data-name="Path 6270" d="M10.194,16.582c.312.7.591,1.425.884,2.138a.55.55,0,0,1,.012.5.491.491,0,0,1-.493.249H8.443v-.006c-.7,0-1.415,0-2.121,0a.96.96,0,0,1-.4-.094.407.407,0,0,1-.186-.543l.01-.019c.165-.415.344-.822.52-1.231.136-.318.263-.642.412-.957A.488.488,0,0,0,6.585,16,2.471,2.471,0,0,1,6.219,13.1a2.428,2.428,0,0,1,1.917-1.3A2.532,2.532,0,0,1,10.95,14.01c.006.043.009.087.013.131" transform="translate(2.531 5.24)" fill="#1d61fe"/>
                </g>
              </g>
              <g id="Group_5853" data-name="Group 5853" transform="translate(198.946 306.381)">
                <g id="Group_5852" data-name="Group 5852" transform="translate(0 0)">
                  <g transform="matrix(1, 0, 0, 1, -4.2, -18.19)" filter="url(#Path_6271)">
                    <path id="Path_6271-2" data-name="Path 6271" d="M0,40.516A40.516,40.516,0,1,0,40.516,0,40.517,40.517,0,0,0,0,40.516Z" transform="translate(4.2 18.19)" fill="#d0deff"/>
                  </g>
                  <path id="Path_6272" data-name="Path 6272" d="M34.131,38.92l-12.069,20.9H46.2Z" transform="translate(6.403 11.295)" fill="#1d61fe"/>
                  <path id="Path_6273" data-name="Path 6273" d="M34.131,38.92l-12.069,20.9H46.2Z" transform="translate(6.403 11.295)" fill="none" stroke="#1d61fe" stroke-width="0.741"/>
                  <line id="Line_436" data-name="Line 436" x2="54.465" transform="translate(13.284 46.732)" fill="none" stroke="#1d61fe" stroke-width="1.023"/>
                  <path id="Path_6274" data-name="Path 6274" d="M47,13.538a5.868,5.868,0,1,1-5.867,5.869v0A5.867,5.867,0,0,1,47,13.538" transform="translate(11.938 3.929)" fill="#ce5ffa"/>
                  <path id="Path_6275" data-name="Path 6275" d="M56.468,32.779a8.8,8.8,0,0,0-17.6,0Z" transform="translate(11.279 6.985)" fill="#ce5ffa"/>
                  <path id="Path_6276" data-name="Path 6276" d="M18.439,13.538a5.868,5.868,0,1,1-5.867,5.869v0a5.867,5.867,0,0,1,5.867-5.867" transform="translate(3.648 3.929)" fill="#3328c3"/>
                  <path id="Path_6277" data-name="Path 6277" d="M27.9,32.8a8.8,8.8,0,0,0-17.6,0Z" transform="translate(2.988 6.965)" fill="#3328c3"/>
                </g>
              </g>
            </g>
          </g>
        </g>
      </g>
    </g>
  </g>
</svg>
