<svg id="hero_data_products" data-name="hero data products" xmlns="http://www.w3.org/2000/svg" xmlns:xlink="http://www.w3.org/1999/xlink" width="655.815" height="535.656" viewBox="0 0 655.815 535.656">
  <defs>
    <clipPath id="clip-path">
      <rect id="Rectangle_1574" data-name="Rectangle 1574" width="655.815" height="535.656" fill="none"/>
    </clipPath>
    <clipPath id="clip-path-3">
      <rect id="Rectangle_1545" data-name="Rectangle 1545" width="180.453" height="130.455" fill="none"/>
    </clipPath>
    <clipPath id="clip-path-4">
      <rect id="Rectangle_1547" data-name="Rectangle 1547" width="182.227" height="122.246" fill="none"/>
    </clipPath>
    <clipPath id="clip-path-5">
      <rect id="Rectangle_1551" data-name="Rectangle 1551" width="192.827" height="272.499" fill="none"/>
    </clipPath>
    <clipPath id="clip-path-6">
      <rect id="Rectangle_1569" data-name="Rectangle 1569" width="52.225" height="37.211" fill="none"/>
    </clipPath>
    <clipPath id="clip-path-7">
      <rect id="Rectangle_1570" data-name="Rectangle 1570" width="184.995" height="184.994" fill="none"/>
    </clipPath>
    <clipPath id="clip-path-8">
      <rect id="Rectangle_1571" data-name="Rectangle 1571" width="146.679" height="85.751" fill="none"/>
    </clipPath>
    <clipPath id="clip-path-9">
      <rect id="Rectangle_1572" data-name="Rectangle 1572" width="17.022" height="17.021" fill="none"/>
    </clipPath>
  </defs>
  <g id="Group_2603" data-name="Group 2603" clip-path="url(#clip-path)">
    <g id="Group_2602" data-name="Group 2602">
      <g id="Group_2601" data-name="Group 2601" clip-path="url(#clip-path)">
        <path id="Path_2738" data-name="Path 2738" d="M537.149,266.032c0,146.925-119.107,266.032-266.032,266.032S5.085,412.958,5.085,266.032,124.192,0,271.117,0,537.149,119.107,537.149,266.032" transform="translate(0.211)" fill="#bba4ff" opacity="0.316"/>
        <path id="Path_2739" data-name="Path 2739" d="M209.835,417.967V70.648a5.291,5.291,0,0,1,5.276-5.276H483.429a5.291,5.291,0,0,1,5.276,5.276V417.967a5.291,5.291,0,0,1-5.276,5.276H215.111a5.291,5.291,0,0,1-5.276-5.276" transform="translate(8.727 2.719)" fill="#fff"/>
        <path id="Path_2740" data-name="Path 2740" d="M488.7,85.952V70.647a5.29,5.29,0,0,0-5.275-5.275H215.111a5.291,5.291,0,0,0-5.276,5.275V85.952Z" transform="translate(8.727 2.719)" fill="#3423c9"/>
        <path id="Path_2741" data-name="Path 2741" d="M222.032,79.227a3.554,3.554,0,1,1,3.555-3.554,3.559,3.559,0,0,1-3.555,3.554m0-6.516a2.962,2.962,0,1,0,2.962,2.962,2.966,2.966,0,0,0-2.962-2.962" transform="translate(9.086 2.999)" fill="#fff"/>
        <path id="Path_2742" data-name="Path 2742" d="M232.554,79.227a3.554,3.554,0,1,1,3.555-3.554,3.559,3.559,0,0,1-3.555,3.554m0-6.516a2.962,2.962,0,1,0,2.962,2.962,2.966,2.966,0,0,0-2.962-2.962" transform="translate(9.524 2.999)" fill="#fff"/>
        <path id="Path_2743" data-name="Path 2743" d="M243.076,79.227a3.554,3.554,0,1,1,3.555-3.554,3.559,3.559,0,0,1-3.555,3.554m0-6.516a2.962,2.962,0,1,0,2.962,2.962,2.966,2.966,0,0,0-2.962-2.962" transform="translate(9.961 2.999)" fill="#fff"/>
        <path id="Path_2744" data-name="Path 2744" d="M416.205,254.068c3.727,0,3.727-4.213,0-4.213H277.5c-3.727,0-3.727,4.213,0,4.213Z" transform="translate(11.424 10.391)" fill="#bba4ff"/>
        <path id="Path_2745" data-name="Path 2745" d="M340.847,91.511a73.369,73.369,0,0,0-55.6,25.4l55.6,48.18,55.6-48.18a73.373,73.373,0,0,0-55.6-25.4" transform="translate(11.863 3.806)" fill="#ffc8ff"/>
        <path id="Path_2746" data-name="Path 2746" d="M416.539,151.8l-72.824,10.47v73.577a73.535,73.535,0,0,0,73.577-73.577,74.308,74.308,0,0,0-.753-10.47" transform="translate(14.295 6.313)" fill="#7c41ff"/>
        <path id="Path_2747" data-name="Path 2747" d="M286.011,116.127a73.548,73.548,0,0,0,17.326,109.849l38.93-62.429Z" transform="translate(11.174 4.83)" fill="#e4d7ff"/>
        <path id="Path_2748" data-name="Path 2748" d="M340.82,235.326a73.237,73.237,0,0,1-39.775-11.685l39.782-61.889Z" transform="translate(12.52 6.727)" fill="#bba4ff"/>
        <path id="Path_2749" data-name="Path 2749" d="M420.131,149.413A73.234,73.234,0,0,0,402.91,111.7l-55.6,48.18Z" transform="translate(14.444 4.646)" fill="#f157ff"/>
        <path id="Path_2750" data-name="Path 2750" d="M411.774,188.421a.545.545,0,0,1-.54-.472c-.1-.736-.169-1.486-.2-2.227a.546.546,0,1,1,1.091-.044c.028.706.092,1.42.189,2.122a.547.547,0,0,1-.467.616.6.6,0,0,1-.075.005" transform="translate(17.095 7.7)" fill="#3423c9"/>
        <path id="Path_2751" data-name="Path 2751" d="M411.818,184.219a.547.547,0,0,1-.541-.627,25.683,25.683,0,0,1,1.052-4.313.546.546,0,0,1,1.035.349,24.55,24.55,0,0,0-1.008,4.128.545.545,0,0,1-.539.464m2.73-8.219a.552.552,0,0,1-.25-.06.546.546,0,0,1-.234-.735,34.3,34.3,0,0,1,2.281-3.784.546.546,0,1,1,.9.621,33.313,33.313,0,0,0-2.209,3.663.544.544,0,0,1-.485.3m4.922-7.153a.546.546,0,0,1-.411-.905c.944-1.082,1.972-2.149,3.057-3.171a.546.546,0,1,1,.748.795c-1.058,1-2.061,2.037-2.982,3.094a.545.545,0,0,1-.411.188m6.319-5.968a.547.547,0,0,1-.337-.976c1.145-.9,2.347-1.761,3.574-2.565a.546.546,0,0,1,.6.913c-1.2.787-2.377,1.632-3.5,2.511a.546.546,0,0,1-.337.117m7.271-4.773a.546.546,0,0,1-.262-1.024c1.269-.7,2.582-1.369,3.9-2a.546.546,0,1,1,.468.986c-1.3.618-2.6,1.279-3.847,1.965a.542.542,0,0,1-.262.068m7.859-3.731a.546.546,0,0,1-.205-1.052c1.334-.542,2.714-1.058,4.1-1.535a.546.546,0,1,1,.354,1.032c-1.369.471-2.73.981-4.047,1.516a.548.548,0,0,1-.205.04m8.224-2.833a.546.546,0,0,1-.151-1.071c1.38-.4,2.8-.769,4.234-1.106a.546.546,0,1,1,.251,1.062c-1.412.333-2.821.7-4.183,1.094a.55.55,0,0,1-.151.021m69.6-1.547H518.3a.546.546,0,0,1-.542-.55.536.536,0,0,1,.55-.542h.435c1.349,0,2.65-.048,3.866-.142a.546.546,0,0,1,.084,1.088c-1.244.1-2.574.145-3.951.145m-4.787-.168h-.036c-1.3-.084-2.724-.2-4.355-.365a.546.546,0,0,1,.107-1.087c1.62.16,3.032.279,4.318.362a.546.546,0,0,1-.034,1.091m-56.351-.289a.546.546,0,0,1-.1-1.082c1.406-.267,2.857-.51,4.312-.724a.546.546,0,0,1,.159,1.08c-1.441.211-2.877.453-4.268.717a.572.572,0,0,1-.1.009m69.358-.258a.546.546,0,0,1-.1-1.081,30.4,30.4,0,0,0,4.127-1.1.546.546,0,1,1,.357,1.031,31.5,31.5,0,0,1-4.277,1.137.6.6,0,0,1-.1.009m-21.671-.276a.586.586,0,0,1-.06,0l-1.3-.141q-1.509-.164-3.026-.311a.546.546,0,1,1,.106-1.086q1.522.147,3.037.312l1.3.141a.546.546,0,0,1-.058,1.088m-39.081-.734a.546.546,0,0,1-.057-1.088c1.419-.154,2.883-.286,4.352-.394a.546.546,0,0,1,.079,1.09c-1.455.106-2.907.237-4.314.39a.569.569,0,0,1-.059,0m30.419-.1a.324.324,0,0,1-.045,0c-1.461-.117-2.919-.219-4.33-.3a.546.546,0,0,1,.066-1.091c1.419.086,2.883.19,4.352.307a.546.546,0,0,1-.043,1.09m-8.688-.522h-.022c-1.464-.056-2.924-.1-4.337-.117a.546.546,0,0,1-.537-.554.538.538,0,0,1,.554-.537c1.422.021,2.89.06,4.363.118a.546.546,0,0,1-.021,1.092m-13.053-.012a.546.546,0,0,1-.022-1.092c1.426-.058,2.895-.1,4.366-.114a.554.554,0,0,1,.552.54.545.545,0,0,1-.54.552c-1.46.018-2.919.055-4.334.114h-.023m60.26-1.211a.546.546,0,0,1-.259-1.027,27.667,27.667,0,0,0,3.583-2.308.546.546,0,1,1,.659.87,28.807,28.807,0,0,1-3.725,2.4.538.538,0,0,1-.258.066m6.928-5.214a.546.546,0,0,1-.385-.932,37.119,37.119,0,0,0,2.847-3.2.546.546,0,1,1,.856.678,38.136,38.136,0,0,1-2.932,3.3.543.543,0,0,1-.385.159m5.414-6.792a.546.546,0,0,1-.458-.842c.753-1.17,1.483-2.421,2.172-3.717a.546.546,0,0,1,.965.512c-.7,1.323-1.449,2.6-2.219,3.8a.545.545,0,0,1-.459.251" transform="translate(17.104 5.389)" fill="#3423c9"/>
        <path id="Path_2752" data-name="Path 2752" d="M546.014,126.957a.528.528,0,0,1-.22-.047.546.546,0,0,1-.279-.72c.286-.649.57-1.32.842-2a.546.546,0,1,1,1.012.408c-.276.686-.565,1.369-.855,2.028a.548.548,0,0,1-.5.326" transform="translate(22.685 5.151)" fill="#3423c9"/>
        <path id="Path_2753" data-name="Path 2753" d="M573.7,85.115l-2.281,51.774-17.1-17.947s19.449-35.28,19.584-34.7l-.746-.622c.575-.165-20.8,33.98-20.8,33.98l-23.994-6.217,44.137-27.159Z" transform="translate(21.974 3.478)" fill="#3423c9"/>
        <rect id="Rectangle_1540" data-name="Rectangle 1540" width="32.662" height="30.134" transform="translate(270.881 373.206)" fill="#7c41ff"/>
        <rect id="Rectangle_1541" data-name="Rectangle 1541" width="32.662" height="90.397" transform="translate(319.873 312.942)" fill="#7c41ff"/>
        <rect id="Rectangle_1542" data-name="Rectangle 1542" width="32.662" height="60.264" transform="translate(368.864 343.076)" fill="#f157ff"/>
        <rect id="Rectangle_1543" data-name="Rectangle 1543" width="32.662" height="120.527" transform="translate(417.855 282.812)" fill="#3423c9"/>
        <g id="Group_2582" data-name="Group 2582" transform="translate(67.591 103.086)" opacity="0.07">
          <g id="Group_2581" data-name="Group 2581">
            <g id="Group_2580" data-name="Group 2580" clip-path="url(#clip-path-3)">
              <rect id="Rectangle_1544" data-name="Rectangle 1544" width="180.453" height="130.455" transform="translate(0)" fill="#184462"/>
            </g>
          </g>
        </g>
        <rect id="Rectangle_1546" data-name="Rectangle 1546" width="181.298" height="130.844" transform="translate(59.26 95.516)" fill="#fff"/>
        <g id="Group_2585" data-name="Group 2585" transform="translate(59.112 105.352)" opacity="0.15">
          <g id="Group_2584" data-name="Group 2584">
            <g id="Group_2583" data-name="Group 2583" clip-path="url(#clip-path-4)">
              <path id="Path_2754" data-name="Path 2754" d="M238.167,124.182v-.4h-22.3V101.9h-.4v21.883H188.728V101.9h-.4v21.883H161.589V101.9h-.4v21.883H134.449V101.9h-.4v21.883H107.311V101.9h-.4v21.883H80.172V101.9h-.4v21.883H57.5v.4H79.768v24.726H57.5v.4H79.768v24.726H57.5v.4H79.768v24.726H57.5v.4H79.768v23.008h.4V199.571h26.734v23.008h.4V199.571h26.735v23.008h.4V199.571h26.736v23.008h.4V199.571h26.734v23.008h.4V199.571h26.734v23.008h.4V199.571h22.3v-.4h-22.3V174.442h22.3v-.4h-22.3V149.311h22.3v-.4h-22.3V124.182Zm-49.843,24.726H161.589V124.182h26.734Zm-53.874.4h26.734v24.726H134.449Zm-.4,24.726H107.312V149.311h26.734Zm27.543-24.726h26.734v24.726H161.589Zm-.4-.4H134.45V124.182h26.734Zm-27.139,0H107.312V124.182h26.734ZM80.172,124.182h26.734v24.726H80.172Zm0,25.129h26.734v24.726H80.172Zm0,25.13h26.734v24.726H80.172Zm27.139,0h26.734v24.726H107.311Zm27.139,0h26.734v24.726H134.449Zm27.14,0h26.734v24.726H161.589Zm53.873,24.726H188.728V174.442h26.734Zm0-25.13H188.728V149.311h26.734Zm0-25.129H188.728V124.182h26.734Z" transform="translate(-56.721 -101.114)" fill="#bba4ff"/>
              <path id="Path_2755" data-name="Path 2755" d="M238.167,124.182v-.4h-22.3V101.9h-.4v21.883H188.728V101.9h-.4v21.883H161.589V101.9h-.4v21.883H134.449V101.9h-.4v21.883H107.311V101.9h-.4v21.883H80.172V101.9h-.4v21.883H57.5v.4H79.768v24.726H57.5v.4H79.768v24.726H57.5v.4H79.768v24.726H57.5v.4H79.768v23.008h.4V199.571h26.734v23.008h.4V199.571h26.735v23.008h.4V199.571h26.736v23.008h.4V199.571h26.734v23.008h.4V199.571h26.734v23.008h.4V199.571h22.3v-.4h-22.3V174.442h22.3v-.4h-22.3V149.311h22.3v-.4h-22.3V124.182Zm-49.843,24.726H161.589V124.182h26.734Zm-53.874.4h26.734v24.726H134.449Zm-.4,24.726H107.312V149.311h26.734Zm27.543-24.726h26.734v24.726H161.589Zm-.4-.4H134.45V124.182h26.734Zm-27.139,0H107.312V124.182h26.734ZM80.172,124.182h26.734v24.726H80.172Zm0,25.129h26.734v24.726H80.172Zm0,25.13h26.734v24.726H80.172Zm27.139,0h26.734v24.726H107.311Zm27.139,0h26.734v24.726H134.449Zm27.14,0h26.734v24.726H161.589Zm53.873,24.726H188.728V174.442h26.734Zm0-25.13H188.728V149.311h26.734Zm0-25.129H188.728V124.182h26.734Z" transform="translate(-56.721 -101.114)" fill="none" stroke="#bba4ff" stroke-width="1.5"/>
            </g>
          </g>
        </g>
        <path id="Path_2756" data-name="Path 2756" d="M82.953,138.933a4.762,4.762,0,0,1,3.343,8.156l16.574,14.272,1.259,1.084a4.762,4.762,0,1,1,5.576,7.706l3.631,8.74q.773,1.864,1.548,3.727a4.735,4.735,0,0,1,5.193,2.246l16.01-10.12,11.864-7.5a4.763,4.763,0,1,1,9.186-1.769,4.831,4.831,0,0,1-.1.973l22.452,9.164,2.2.9a4.763,4.763,0,1,1,7.635,5.359l3.334,3.784,15.918,18.068a4.788,4.788,0,1,1-1.235,1.219q-6.795-7.715-13.591-15.428l-5.9-6.694a4.76,4.76,0,0,1-6.557-4.412c0-.065.007-.127.009-.191l-.325-.132-24.6-10.041a4.753,4.753,0,0,1-7.5.666l-10.76,6.8-17.454,11.034a4.844,4.844,0,0,1,.058.711A4.764,4.764,0,1,1,113.3,183.3l-5.187-12.488A4.757,4.757,0,0,1,103,163.758l-2.932-2.525L87.513,150.421l-2.708-2.333a4.765,4.765,0,1,1-1.852-9.155" transform="translate(3.252 5.778)" fill="#f157ff"/>
        <rect id="Rectangle_1548" data-name="Rectangle 1548" width="181.432" height="40.055" transform="translate(59.261 95.516)" fill="#3423c9"/>
        <path id="Path_2757" data-name="Path 2757" d="M78.612,98.97,76.078,101.5l-7.6,7.6-2.534,2.534,2.534,2.533L78.612,124.3l2.533-2.533L71.011,111.638l7.6-7.6,7.6,7.6L81.145,116.7l2.533,2.533,5.067-5.066,2.533-2.533L88.746,109.1l-7.6-7.6Z" transform="translate(2.743 4.116)" fill="#fff"/>
        <rect id="Rectangle_1549" data-name="Rectangle 1549" width="3.941" height="3.941" transform="translate(78.567 115.753) rotate(-45)" fill="#fff"/>
        <rect id="Rectangle_1550" data-name="Rectangle 1550" width="119.716" height="3.408" transform="translate(105.989 114.049)" fill="#fff"/>
        <g id="Group_2588" data-name="Group 2588" transform="translate(17.68 263.156)" opacity="0.07">
          <g id="Group_2587" data-name="Group 2587">
            <g id="Group_2586" data-name="Group 2586" clip-path="url(#clip-path-5)">
              <path id="Path_2758" data-name="Path 2758" d="M193.416,525.148H16.974v-272.5H209.8V508.764a16.384,16.384,0,0,1-16.384,16.384" transform="translate(-16.974 -252.649)" fill="#184462"/>
            </g>
          </g>
        </g>
        <path id="Path_2759" data-name="Path 2759" d="M0,513.17V237.418a5.223,5.223,0,0,1,5.208-5.208H199.36a5.223,5.223,0,0,1,5.208,5.208V513.17a5.223,5.223,0,0,1-5.208,5.208H5.208A5.223,5.223,0,0,1,0,513.17" transform="translate(0 9.657)" fill="#fff"/>
        <rect id="Rectangle_1552" data-name="Rectangle 1552" width="168.198" height="106.361" transform="translate(20.571 265.336)" fill="#fff"/>
        <rect id="Rectangle_1553" data-name="Rectangle 1553" width="9.428" height="9.428" transform="translate(20.225 414.021) rotate(-45)" fill="#7c41ff"/>
        <rect id="Rectangle_1554" data-name="Rectangle 1554" width="83.064" height="3.848" transform="translate(43.657 391.759)" fill="#3423c9"/>
        <rect id="Rectangle_1555" data-name="Rectangle 1555" width="83.064" height="3.848" transform="translate(43.108 412.097)" fill="#3423c9"/>
        <rect id="Rectangle_1556" data-name="Rectangle 1556" width="160.503" height="4.157" transform="translate(22.22 440.8)" fill="#bba4ff"/>
        <rect id="Rectangle_1557" data-name="Rectangle 1557" width="71.456" height="56.959" transform="translate(22.22 452.876)" fill="#e4d7ff"/>
        <rect id="Rectangle_1558" data-name="Rectangle 1558" width="78.052" height="24.803" transform="translate(104.67 453.426)" fill="#f157ff"/>
        <rect id="Rectangle_1559" data-name="Rectangle 1559" width="78.052" height="24.803" transform="translate(103.845 484.757)" fill="#7c41ff"/>
        <path id="Path_2760" data-name="Path 2760" d="M156.072,365.868l-3.738,3.738L141.119,380.82l-3.737,3.738,3.737,3.738,14.953,14.952,3.738-3.738-14.952-14.952,11.214-11.214,11.214,11.214-7.475,7.477,3.737,3.737,7.477-7.475,3.738-3.738-3.738-3.737-11.214-11.215Z" transform="translate(5.714 15.216)" fill="#3423c9"/>
        <rect id="Rectangle_1560" data-name="Rectangle 1560" width="5.816" height="5.816" transform="translate(157.674 399.775) rotate(-45)" fill="#3423c9"/>
        <path id="Path_2761" data-name="Path 2761" d="M62.546,355.464c-3.38-1.763-4.018-3.353-3.384-8.026.582-4.283,1.062-8.579,1.635-12.863a5.308,5.308,0,0,0-1.542-4.536,20.075,20.075,0,0,1-3.345-5.762c-.366-.921.248-2.267.521-3.395.517-2.138.364-2.854-1.578-3.859-2.81-1.455-5.2-3.609-8.5-4.322-1.494-.322-2.653-2.19-3.988-3.379l-.427,1.062c-.182,0-.346.04-.374-.005-2.262-3.58-5.506-6.583-6.526-10.891a15.753,15.753,0,0,1-.54-3.817,7.071,7.071,0,0,0-3.269-6.126,10.585,10.585,0,0,1-4-4.634c-.631-1.548-2.119-1.862-3.85-.827a7.018,7.018,0,0,1-5.516.581,3.735,3.735,0,0,1-3.222-3.566c-.1-.885-.309-1.757-.47-2.635v-2.027c.811-.812,1.566-1.634,1-2.929a.925.925,0,0,1,.067-.65c.728-1.687,4.568-3.577,6.381-3.116a10.424,10.424,0,0,1,2.228.765c3.547,1.835,7.288,1.229,11.01.971a4.545,4.545,0,0,1,1.794.06c3.714,1.354,7.457,2.127,11.369.9,2.09,1.225,3.636-.545,5.439-.944,1.6-.355,3.119,2.62,2.543,4.657a17.189,17.189,0,0,0-.334,2.853l.594.475a13.931,13.931,0,0,1-3.014.713,3.4,3.4,0,0,0-3.342,2.222c-.558,1.8-.21,2.9,1.348,3.759,1.016.56,2.176.87,3.153,1.481a4.242,4.242,0,0,1,1.1,1.6,4.332,4.332,0,0,0,.8,1.305c.386-1.858,1.576-3.444.652-5.485-.437-.967,0-2.431.334-3.583a1.9,1.9,0,0,1,1.727-.677,34.148,34.148,0,0,1,3.688,2.564l.184.809c.4-.7.807-1.406,1.234-2.148.39.272.636.351.717.513q2.692,5.417,5.35,10.849c.544,1.109.172,1.351-1.024,1.732a57.888,57.888,0,0,0-6.067,2.818c-3.295,1.491-4.273,4.914-6.259,7.482-.58.749-.535,1.978-.777,2.987l-.79.577a11.065,11.065,0,0,0-.751-1.627,4.388,4.388,0,0,0-5.561-.92c-.92.668-.792,4.287.242,4.564.492.132,1.171-.42,1.761-.669s1.159-.5,1.739-.748c.2.619.349,1.258.605,1.853a12.036,12.036,0,0,0,.948,1.726c.142.221.531.305.627.529,1,2.333,2.486,2.032,4.383,1.084a4.972,4.972,0,0,1,2.784.061c3.384.606,6.543,1.7,8.768,4.547,1.4,1.792,3.355,2.438,5.489,2.946,3.753.893,3.954,1.47,2.917,5.164a15.644,15.644,0,0,1-4.16,7.336c-3.5,3.4-6.706,7.114-10,10.728-.432.475-.982,1.207-.9,1.725.453,2.731-1.478,5.468.061,8.166Z" transform="translate(0.59 11.215)" fill="#bba4ff"/>
        <path id="Path_2762" data-name="Path 2762" d="M130.381,267.972l1.367.844c.137-.141.281-.225.273-.289-.294-2.136-.143-3.928,2.689-4.048.38-.017.786-.6,1.093-.994,2.526-3.235,6.221-3.387,9.8-3.436a5.134,5.134,0,0,1,3.412,1.914c2.292,2.816,5.406,3.748,8.712,4.314,4.44.761,8.88,1.464,13.047,3.311a6.123,6.123,0,0,0,2.471.455c4.7-.04,7.662,3.115,10.8,5.889.305.27.194,1.405-.118,1.885-.5.779-1.023,1.884-2.358,1.432-.574-.195-1.143-.407-1.971-.7.325,3.95-2.969,4.207-5.26,5.438-1.218.654-2.508,1.1-2.493,2.806a1.162,1.162,0,0,1-.249.621,63.786,63.786,0,0,1-4.714,6.021c0-1.353.03-2.708-.009-4.06-.037-1.32.29-2.891-1.28-3.553-1.686-.711-3.061.16-4.216,1.35a17.964,17.964,0,0,0-1.3,1.711c2.308,1.291,1.794,3.11.823,4.71a25.883,25.883,0,0,1-3.555,4.456,4.253,4.253,0,0,0-1.417,3.417,2.025,2.025,0,0,1-2.412,2.248c-.314-.035-.717-.593-.807-.973a8.255,8.255,0,0,1-.035-1.852c-1.764.728-2.483,1.826-1.909,3.37,1.83,4.916-.144,5.859-3.97,6.956-1.719.493-1.974.953-1.374,2.636a2.831,2.831,0,0,1-2.569,3.777c-.519,0-1.038-.657-1.625-1.059-.343.469-.727.994-1.112,1.519.014-3.187-1.858-5.151-4.524-7.1-1.278,1.871-2.562,3.731-3.821,5.608-.311.465-.521,1-.813,1.477-.592.97-1.206.976-1.7-.066-.6-1.271-1.17-2.558-1.689-3.863-1.067-2.681-3.162-4.117-5.8-4.971a28.211,28.211,0,0,0-5-1.379c.529.345,1.023.9,1.594.995a2.489,2.489,0,0,1,2.2,2.219c.26,1.3-.738,1.787-1.62,2.272-4.228,2.322-5.309,1.971-7.49-2.3a3.878,3.878,0,0,0-1.2-1.369c.924,3.863,2.976,6.425,7.983,5.816-.821,1.764-1.376,3-1.97,4.211a3.29,3.29,0,0,1-.692.954,9.971,9.971,0,0,0-3.308,8.922,2.834,2.834,0,0,1-1.043,2.287,6.787,6.787,0,0,0-3.115,4.615c-.669,2.908-2.665,4.129-5.385,4.584-1.348.226-2.038-.144-2.307-1.648-.812-4.531-1.782-9.035-2.722-13.542a43.814,43.814,0,0,0-1.242-4.974,2,2,0,0,0-1.5-.97,22.484,22.484,0,0,0-4.038.143c-2.628.3-4.247-.4-5.426-2.743-1.652-3.287-1.881-6.4.167-9.869,2.581-4.367,6.42-5.449,10.943-5.48a3.687,3.687,0,0,1,3.393,1.858,2.917,2.917,0,0,0,3.042,1.343c1.14-.077,2.314.26,3.441.133a6.686,6.686,0,0,0,2.585-1.02c.239-.145.257-.969.1-1.377-.26-.678-4.159-1.432-4.865-1.161-.437.168-1.283.225-1.448-.011-.865-1.249-1.705-.973-2.67-.207a2.647,2.647,0,0,1-.769.275,3.453,3.453,0,0,0-3.768-3.6,2.576,2.576,0,0,0-1.738,1.269,6.467,6.467,0,0,1-3.643,3.07,1.606,1.606,0,0,1-2.263-.779,2.9,2.9,0,0,1,2.156-4.534c.381-.034.757-.121,1.466-.237l-1.68-3.57c2.972.119,4.364-2.035,6.1-3.654a2.386,2.386,0,0,1,2.62-.475c2.79.841,4.374-.283,4.46-3.129a1.448,1.448,0,0,0-.634-1.011c-.141-.1-.705.214-.9.473-.3.393-.358.979-.679,1.342-.407.458-1.019,1.123-1.464,1.068a2.144,2.144,0,0,1-1.564-1.2,4.982,4.982,0,0,0-2.466-3.217,1.783,1.783,0,0,1-.364-3.009c3.2-3.4,6.452-6.754,9.71-10.1.931-.957,1.761-.844,2.679.216,1.062,1.225,2.159,2.658,3.562,3.288,1.625.73,3.788,1.317,5.384.843,3.453-1.024,7.018-2.114,9.737-4.782a3.589,3.589,0,0,1,1.355-.62c.93-.319,1.875-.6,2.813-.889l.1-.535" transform="translate(3.501 10.815)" fill="#bba4ff"/>
        <path id="Path_2763" data-name="Path 2763" d="M72.383,285.587c-3.9-3.5-6.093-7.229-5.283-12.321a6.9,6.9,0,0,0-.622-2.589,6.721,6.721,0,0,1-.351-.914c-.258-2.338-.484-4.68-.733-7.155h19.9a8.464,8.464,0,0,1-.5,1.309,6.8,6.8,0,0,0-1.01,5.615,3.1,3.1,0,0,1-1.2,3.45,34.961,34.961,0,0,1-4.131,3.194c-2.665,1.508-4.442,3.5-4.907,6.609a13.364,13.364,0,0,1-1.164,2.8" transform="translate(2.72 10.921)" fill="#bba4ff"/>
        <path id="Path_2764" data-name="Path 2764" d="M156.655,327.035l2.663-2.125c.212.321.517.79.83,1.253,1.122,1.661,2.135,3.411,3.406,4.95.948,1.149,1.464,2.21.939,3.667-.4,1.108-.7,2.249-1.082,3.364a3.733,3.733,0,0,1-6.237,1.539.678.678,0,0,1-.115-.124c-1.99-3.034-4.61-3.322-7.67-1.777a8,8,0,0,1-1.427.512c-2.374.674-3.3-.2-2.97-2.587a8.652,8.652,0,0,0-.119-3.3,1.732,1.732,0,0,1,1.529-2.44c1.507-.3,2.278-1.406,3.348-2.289a17.977,17.977,0,0,1,5.146-2.555c.342-.13,1.079.784,1.634,1.217.041.231.082.464.123.695" transform="translate(6.021 13.513)" fill="#bba4ff"/>
        <path id="Path_2765" data-name="Path 2765" d="M136.634,316.529c1.347,1.072,2.721,2.113,4.031,3.228.749.636,1.334.814,1.853-.2.076-.148.156-.349.287-.406,1.051-.464,2.115-.9,3.175-1.339.264.8.527,1.605.824,2.512.381-.285.869-.7,1.406-1.042,1.277-.8,2.163-.363,2.323,1.118.254,2.368-.473,3.075-2.965,2.883-.221-.018-.565-.122-.648-.02-1.357,1.668-2.588.275-3.86-.128-.316-.1-.721-.33-.952-.221-1.768.834-2.452-.469-3.182-1.584-.943-1.438-1.808-2.927-2.706-4.393l.415-.405" transform="translate(5.665 13.164)" fill="#bba4ff"/>
        <path id="Path_2766" data-name="Path 2766" d="M159.2,292.984c.954,1.576,1.346,2.553.429,3.828a10.748,10.748,0,0,0-.917,2.8c-.227.666-.343,1.555-.828,1.91-1.562,1.145-3.274,2.087-4.927,3.109l-.54-.528a9.865,9.865,0,0,1,1.944-2.382,6.733,6.733,0,0,0,2.745-3.688c.563-1.595,1.289-3.132,2.094-5.052" transform="translate(6.339 12.185)" fill="#bba4ff"/>
        <path id="Path_2767" data-name="Path 2767" d="M153.57,320.2c4.326-.8,8.073,1.059,9.038,4.8-2.009-.411-3.978-.442-5.544-1.248-1.375-.708-2.3-2.287-3.493-3.556" transform="translate(6.387 13.309)" fill="#bba4ff"/>
        <rect id="Rectangle_1561" data-name="Rectangle 1561" width="4.32" height="4.32" transform="matrix(0.707, -0.707, 0.707, 0.707, 134.644, 302.325)" fill="#7c41ff"/>
        <rect id="Rectangle_1562" data-name="Rectangle 1562" width="4.32" height="4.32" transform="translate(107.119 326.837) rotate(-45)" fill="#7c41ff"/>
        <rect id="Rectangle_1563" data-name="Rectangle 1563" width="10.101" height="10.101" transform="translate(61.036 325.81) rotate(-45)" fill="#7c41ff"/>
        <rect id="Rectangle_1564" data-name="Rectangle 1564" width="10.101" height="10.101" transform="translate(112.936 296.231) rotate(-45)" fill="#7c41ff"/>
        <rect id="Rectangle_1565" data-name="Rectangle 1565" width="6.502" height="6.502" transform="translate(90.851 296.171) rotate(-45)" fill="#7c41ff"/>
        <rect id="Rectangle_1566" data-name="Rectangle 1566" width="5.175" height="5.175" transform="translate(41.142 299.27) rotate(-45)" fill="#7c41ff"/>
        <path id="Path_2768" data-name="Path 2768" d="M94.754,292.7a3,3,0,1,1-3-3,3,3,0,0,1,3,3" transform="translate(3.691 12.049)" fill="#f157ff"/>
        <path id="Path_2769" data-name="Path 2769" d="M152.88,280.042a2.762,2.762,0,1,1-2.761-2.761,2.761,2.761,0,0,1,2.761,2.761" transform="translate(6.128 11.532)" fill="#f157ff"/>
        <path id="Path_2770" data-name="Path 2770" d="M109.378,320.572a3.464,3.464,0,1,1-3.464-3.464,3.464,3.464,0,0,1,3.464,3.464" transform="translate(4.261 13.188)" fill="#f157ff"/>
        <path id="Path_2771" data-name="Path 2771" d="M49.812,298.5a6.539,6.539,0,1,1-6.539-6.539,6.539,6.539,0,0,1,6.539,6.539" transform="translate(1.528 12.142)" fill="#f157ff"/>
        <path id="Path_2772" data-name="Path 2772" d="M31.778,378.194a5.73,5.73,0,1,1-5.73-5.73,5.73,5.73,0,0,1,5.73,5.73" transform="translate(0.845 15.49)" fill="#f157ff"/>
        <path id="Path_2773" data-name="Path 2773" d="M68.329,323.87a2.762,2.762,0,1,1-2.761-2.761,2.761,2.761,0,0,1,2.761,2.761" transform="translate(2.612 13.355)" fill="#f157ff"/>
        <rect id="Rectangle_1567" data-name="Rectangle 1567" width="10.101" height="10.101" transform="translate(157.333 335.767) rotate(-45)" fill="#7c41ff"/>
        <path id="Path_2774" data-name="Path 2774" d="M160.719,332.644a2.762,2.762,0,1,1-2.761-2.761,2.761,2.761,0,0,1,2.761,2.761" transform="translate(6.454 13.719)" fill="#f157ff"/>
        <path id="Path_2775" data-name="Path 2775" d="M120.019,296.346a4.553,4.553,0,1,1-4.553-4.553,4.553,4.553,0,0,1,4.553,4.553" transform="translate(4.613 12.135)" fill="#f157ff"/>
        <path id="Path_2776" data-name="Path 2776" d="M135.073,297.373a2.762,2.762,0,1,1-2.761-2.761,2.761,2.761,0,0,1,2.761,2.761" transform="translate(5.388 12.253)" fill="#f157ff"/>
        <rect id="Rectangle_1568" data-name="Rectangle 1568" width="7.399" height="7.399" transform="matrix(0.707, -0.707, 0.707, 0.707, 151.014, 282.096)" fill="#7c41ff"/>
        <path id="Path_2777" data-name="Path 2777" d="M154.009,281.129a3.848,3.848,0,1,1-3.849-3.849,3.849,3.849,0,0,1,3.849,3.849" transform="translate(6.085 11.532)" fill="#f157ff"/>
        <path id="Path_2778" data-name="Path 2778" d="M596.356,300.8l-18.914,30.3L470.113,263.487l18.914-30.3Z" transform="translate(19.551 9.698)" fill="#f157ff"/>
        <path id="Path_2779" data-name="Path 2779" d="M631.04,343.138l-.184.295c-5.032,8.06-14.921,10.966-22.089,6.491l-82.324-50.665,18.136-30.784,82.594,51.967c7.167,4.475,8.9,14.636,3.867,22.7" transform="translate(21.894 11.166)" fill="#3423c9"/>
        <g id="Group_2591" data-name="Group 2591" transform="translate(497.173 244.274)" opacity="0.2" style="mix-blend-mode: multiply;isolation: isolate">
          <g id="Group_2590" data-name="Group 2590">
            <g id="Group_2589" data-name="Group 2589" clip-path="url(#clip-path-6)">
              <path id="Path_2780" data-name="Path 2780" d="M477.322,267.948l5.2,3.783,47.03-12.206-39.185-25Z" transform="translate(-477.322 -234.521)" fill="#bbbcc0"/>
            </g>
          </g>
        </g>
        <path id="Path_2781" data-name="Path 2781" d="M462.909,110.818a107.508,107.508,0,1,0,34.262,148.129,107.509,107.509,0,0,0-34.262-148.129m21.518,140.173a92.485,92.485,0,1,1-29.474-127.429,92.484,92.484,0,0,1,29.474,127.429" transform="translate(12.412 3.93)" fill="#f157ff"/>
        <g id="Group_2594" data-name="Group 2594" transform="translate(325.891 113.446)" opacity="0.5">
          <g id="Group_2593" data-name="Group 2593">
            <g id="Group_2592" data-name="Group 2592" clip-path="url(#clip-path-7)">
              <path id="Path_2782" data-name="Path 2782" d="M454.354,122.962a92.485,92.485,0,1,0,29.474,127.429,92.485,92.485,0,0,0-29.474-127.429" transform="translate(-312.879 -108.916)" fill="#bba4ff"/>
            </g>
          </g>
        </g>
        <g id="Group_2597" data-name="Group 2597" transform="translate(338.811 122.527)" opacity="0.22">
          <g id="Group_2596" data-name="Group 2596">
            <g id="Group_2595" data-name="Group 2595" clip-path="url(#clip-path-8)">
              <path id="Path_2783" data-name="Path 2783" d="M338.212,197.325c-.455-29.489,18.708-56.173,47.157-64.358,28.378-8.164,59.307,4.357,74.237,29.828,4.208,7.179,15.653,1.179,11.439-6.01a79.025,79.025,0,0,0-84.486-37.431c-32.742,6.968-56.9,35.11-60.838,68a71.611,71.611,0,0,0-.425,9.592c.128,8.3,13.046,8.734,12.917.376" transform="translate(-325.283 -117.635)" fill="#fff"/>
            </g>
          </g>
        </g>
        <g id="Group_2600" data-name="Group 2600" transform="translate(479.424 179.031)" opacity="0.31">
          <g id="Group_2599" data-name="Group 2599">
            <g id="Group_2598" data-name="Group 2598" clip-path="url(#clip-path-9)">
              <path id="Path_2784" data-name="Path 2784" d="M473.3,173.175a8.509,8.509,0,1,1-11.725,2.712,8.511,8.511,0,0,1,11.725-2.712" transform="translate(-460.281 -171.883)" fill="#fff"/>
            </g>
          </g>
        </g>
        <path id="Path_2785" data-name="Path 2785" d="M495.8,202.205a91.523,91.523,0,1,1-12.277-45.818A92.213,92.213,0,0,1,495.8,202.205c.011,3.173,4.932,3.174,4.92,0a96.438,96.438,0,1,0-30.562,70.431,97.527,97.527,0,0,0,30.562-70.431c.011-3.174-4.909-3.173-4.92,0" transform="translate(12.805 4.399)" fill="#7c41ff"/>
      </g>
    </g>
  </g>
</svg>
