<svg id="Open_Ecosystems" data-name="Open Ecosystems" xmlns="http://www.w3.org/2000/svg" xmlns:xlink="http://www.w3.org/1999/xlink" width="128.653" height="106.646" viewBox="0 0 128.653 106.646">
  <defs>
    <clipPath id="clip-path">
      <path id="Path_3777" data-name="Path 3777" d="M-4.605-7.194H24.437V35.841H-4.605Z" transform="translate(4.605 7.194)" fill="none" stroke="#fff" stroke-width="2"/>
    </clipPath>
  </defs>
  <g id="Group_3798" data-name="Group 3798" transform="translate(0 0)">
    <path id="Path_2796" data-name="Path 2796" d="M-24459.281-405.36l5.945-7.03" transform="translate(24555.133 445.892)" fill="none" stroke="#fff" stroke-width="2"/>
    <path id="Path_3833" data-name="Path 3833" d="M-24459-411.967l5.957,5.865" transform="translate(24554.242 424.517)" fill="none" stroke="#fff" stroke-width="2"/>
    <path id="Path_2799" data-name="Path 2799" d="M0,14.08,12.116,0" transform="translate(24.162 83.117) rotate(16)" fill="none" stroke="#fff" stroke-width="2"/>
    <path id="Path_2797" data-name="Path 2797" d="M0,8.127,9.246,0" transform="matrix(-0.438, -0.899, 0.899, -0.438, 97.941, 89.465)" fill="none" stroke="#fff" stroke-width="2"/>
    <path id="Path_2798" data-name="Path 2798" d="M.659,9.051,7.62,0" transform="translate(30.286 29.773) rotate(-97)" fill="none" stroke="#fff" stroke-width="2"/>
    <path id="Path_3834" data-name="Path 3834" d="M0,0,5.364,5.378" transform="translate(11.144 29.542) rotate(-97)" fill="none" stroke="#fff" stroke-width="2"/>
    <g id="Ellipse_428" data-name="Ellipse 428" transform="translate(98.221 14.421)" fill="none" stroke="#fff" stroke-width="2">
      <ellipse cx="10.983" cy="10.983" rx="10.983" ry="10.983" stroke="none"/>
      <ellipse cx="10.983" cy="10.983" rx="9.983" ry="9.983" fill="none"/>
    </g>
    <g id="Ellipse_430" data-name="Ellipse 430" transform="translate(100.733 82.077) rotate(-19)" fill="none" stroke="#fff" stroke-width="2">
      <ellipse cx="10.983" cy="10.983" rx="10.983" ry="10.983" stroke="none"/>
      <ellipse cx="10.983" cy="10.983" rx="9.983" ry="9.983" fill="none"/>
    </g>
    <g id="Ellipse_429" data-name="Ellipse 429" transform="translate(83.207 0)" fill="none" stroke="#fff" stroke-width="2">
      <ellipse cx="7.688" cy="7.688" rx="7.688" ry="7.688" stroke="none"/>
      <ellipse cx="7.688" cy="7.688" rx="6.688" ry="6.688" fill="none"/>
    </g>
    <g id="Ellipse_433" data-name="Ellipse 433" transform="translate(7.693 92.368)" fill="none" stroke="#fff" stroke-width="2">
      <ellipse cx="7.139" cy="7.139" rx="7.139" ry="7.139" stroke="none"/>
      <ellipse cx="7.139" cy="7.139" rx="6.139" ry="6.139" fill="none"/>
    </g>
    <g id="Ellipse_432" data-name="Ellipse 432" transform="translate(0 27.174)" fill="none" stroke="#fff" stroke-width="2">
      <ellipse cx="7.139" cy="7.139" rx="7.139" ry="7.139" stroke="none"/>
      <ellipse cx="7.139" cy="7.139" rx="6.139" ry="6.139" fill="none"/>
    </g>
    <g id="Ellipse_431" data-name="Ellipse 431" transform="translate(10.983 5.209)" fill="none" stroke="#fff" stroke-width="2">
      <ellipse cx="10.983" cy="10.983" rx="10.983" ry="10.983" stroke="none"/>
      <ellipse cx="10.983" cy="10.983" rx="9.983" ry="9.983" fill="none"/>
    </g>
    <g id="Path_4424" data-name="Path 4424" transform="translate(22.803 19.61)" fill="none">
      <path d="M39.538,0A39.538,39.538,0,1,1,0,39.538,39.538,39.538,0,0,1,39.538,0Z" stroke="none"/>
      <path d="M 39.53758239746094 2 C 34.46915817260742 2 29.55340576171875 2.992210388183594 24.92686462402344 4.949058532714844 C 20.45715713500977 6.839584350585938 16.44252395629883 9.546455383300781 12.99449920654297 12.99448394775391 C 9.546463012695312 16.4425163269043 6.839591979980469 20.4571418762207 4.949066162109375 24.92684555053711 C 2.992202758789062 29.55336380004883 1.999992370605469 34.4691162109375 1.999992370605469 39.53752899169922 C 1.999992370605469 44.60594177246094 2.992202758789062 49.52169418334961 4.949066162109375 54.14820861816406 C 6.839591979980469 58.617919921875 9.546463012695312 62.63254165649414 12.99449920654297 66.08057403564453 C 16.44252395629883 69.52860260009766 20.45715713500977 72.2354736328125 24.92686462402344 74.12599945068359 C 29.55340576171875 76.08284759521484 34.46915817260742 77.07505798339844 39.53758239746094 77.07505798339844 C 44.60600662231445 77.07505798339844 49.52175903320312 76.08284759521484 54.14828872680664 74.12599945068359 C 58.61799621582031 72.2354736328125 62.63262939453125 69.52860260009766 66.08065032958984 66.08057403564453 C 69.5286865234375 62.63254165649414 72.23555755615234 58.617919921875 74.12609100341797 54.14820861816406 C 76.08294677734375 49.52169418334961 77.07515716552734 44.60594177246094 77.07515716552734 39.53752899169922 C 77.07515716552734 34.4691162109375 76.08294677734375 29.55336380004883 74.12609100341797 24.92684555053711 C 72.23555755615234 20.4571418762207 69.5286865234375 16.4425163269043 66.08065032958984 12.99448394775391 C 62.63262939453125 9.546455383300781 58.61799621582031 6.839584350585938 54.14828872680664 4.949058532714844 C 49.52175903320312 2.992210388183594 44.60600662231445 2 39.53758239746094 2 M 39.53758239746094 0 C 61.37358093261719 0 79.07515716552734 17.70155334472656 79.07515716552734 39.53752899169922 C 79.07515716552734 61.37350463867188 61.37358093261719 79.07505798339844 39.53758239746094 79.07505798339844 C 17.70157241821289 79.07505798339844 -7.62939453125e-06 61.37350463867188 -7.62939453125e-06 39.53752899169922 C -7.62939453125e-06 17.70155334472656 17.70157241821289 0 39.53758239746094 0 Z" stroke="none" fill="#fff"/>
    </g>
    <g id="Ellipse_654" data-name="Ellipse 654" transform="translate(43.412 40.531)" fill="#c272e8" stroke="#fff" stroke-width="2">
      <ellipse cx="18.929" cy="18.929" rx="18.929" ry="18.929" stroke="none"/>
      <ellipse cx="18.929" cy="18.929" rx="17.929" ry="17.929" fill="none"/>
    </g>
  </g>
  <g id="Group_3894" data-name="Group 3894" transform="translate(78.162 41.369) rotate(-135)">
    <path id="Polygon_10" data-name="Polygon 10" d="M3.045,1.29a1,1,0,0,1,1.677,0L6.763,4.43a1,1,0,0,1-.838,1.545H1.843A1,1,0,0,1,1,4.43Z" transform="translate(7.767 10.144) rotate(180)" fill="#fff"/>
    <path id="Path_3804" data-name="Path 3804" d="M0,0V8.579" transform="translate(3.884 0)" fill="none" stroke="#fff" stroke-width="2"/>
  </g>
  <g id="Group_3897" data-name="Group 3897" transform="translate(84.619 85.066) rotate(135)">
    <path id="Polygon_10-2" data-name="Polygon 10" d="M3.045,1.29a1,1,0,0,1,1.677,0L6.763,4.43a1,1,0,0,1-.838,1.545H1.843A1,1,0,0,1,1,4.43Z" transform="translate(0 0)" fill="#fff"/>
    <path id="Path_3804-2" data-name="Path 3804" d="M0,8.579V0" transform="translate(3.883 1.565)" fill="none" stroke="#fff" stroke-width="2"/>
  </g>
  <g id="Group_4423" data-name="Group 4423" transform="translate(95.472 56.268) rotate(88)">
    <path id="Polygon_10-3" data-name="Polygon 10" d="M3.045,1.29a1,1,0,0,1,1.677,0L6.763,4.43a1,1,0,0,1-.838,1.545H1.843A1,1,0,0,1,1,4.43Z" transform="translate(0 0)" fill="#fff"/>
    <path id="Path_3804-3" data-name="Path 3804" d="M0,8.579V0" transform="translate(3.883 1.565)" fill="none" stroke="#fff" stroke-width="2"/>
  </g>
  <g id="Group_4424" data-name="Group 4424" transform="matrix(0, -1, 1, 0, 28.935, 64.209)">
    <path id="Polygon_10-4" data-name="Polygon 10" d="M3.045,1.29a1,1,0,0,1,1.677,0L6.763,4.43a1,1,0,0,1-.838,1.545H1.843A1,1,0,0,1,1,4.43Z" transform="translate(0 0)" fill="#fff"/>
    <path id="Path_3804-4" data-name="Path 3804" d="M0,8.579V0" transform="translate(3.883 1.565)" fill="none" stroke="#fff" stroke-width="2"/>
  </g>
  <g id="Group_3895" data-name="Group 3895" transform="translate(39.212 34.197) rotate(-45)">
    <path id="Polygon_10-5" data-name="Polygon 10" d="M3.045,1.29a1,1,0,0,1,1.677,0L6.763,4.43a1,1,0,0,1-.838,1.545H1.843A1,1,0,0,1,1,4.43Z" transform="translate(0 0)" fill="#fff"/>
    <path id="Path_3804-5" data-name="Path 3804" d="M0,8.579V0" transform="translate(3.884 1.564)" fill="none" stroke="#fff" stroke-width="2"/>
  </g>
  <g id="Group_3896" data-name="Group 3896" transform="translate(45.668 77.893) rotate(45)">
    <path id="Polygon_10-6" data-name="Polygon 10" d="M3.045,1.29a1,1,0,0,1,1.677,0L6.763,4.43a1,1,0,0,1-.838,1.545H1.843A1,1,0,0,1,1,4.43Z" transform="translate(7.767 10.143) rotate(180)" fill="#fff"/>
    <path id="Path_3804-6" data-name="Path 3804" d="M0,0V8.579" transform="translate(3.884 0)" fill="none" stroke="#fff" stroke-width="2"/>
  </g>
</svg>
