<svg id="iron_footer" data-name="iron footer" xmlns="http://www.w3.org/2000/svg" width="73.386" height="73.387" viewBox="0 0 73.386 73.387">
  <path id="Icon_ionic-ios-send" data-name="Icon ionic-ios-send" d="M50.259.116.644,21.741a1.137,1.137,0,0,0,.041,2.068l13.421,7.582a2.164,2.164,0,0,0,2.473-.243L43.042,8.334c.176-.149.595-.432.757-.27s-.095.581-.243.757L20.66,34.608a2.157,2.157,0,0,0-.216,2.581l8.772,14.07a1.141,1.141,0,0,0,2.054-.027L51.787,1.616A1.138,1.138,0,0,0,50.259.116Z" transform="translate(36.691) rotate(45)" fill="#f259f9"/>
</svg>
