<svg xmlns="http://www.w3.org/2000/svg" xmlns:xlink="http://www.w3.org/1999/xlink" width="75" height="75" viewBox="0 0 75 75">
  <defs>
    <filter id="Ellipse_649" x="0" y="0" width="75" height="75" filterUnits="userSpaceOnUse">
      <feOffset dy="3" input="SourceAlpha"/>
      <feGaussianBlur stdDeviation="3" result="blur"/>
      <feFlood flood-opacity="0.161"/>
      <feComposite operator="in" in2="blur"/>
      <feComposite in="SourceGraphic"/>
    </filter>
    <clipPath id="clip-path">
      <rect id="Rectangle_3239" data-name="Rectangle 3239" width="40.117" height="40.117" fill="none"/>
    </clipPath>
  </defs>
  <g id="Linkedin" transform="translate(9 6)">
    <g transform="matrix(1, 0, 0, 1, -9, -6)" filter="url(#Ellipse_649)">
      <circle id="Ellipse_649-2" data-name="Ellipse 649" cx="28.5" cy="28.5" r="28.5" transform="translate(9 6)" fill="#fff"/>
    </g>
    <g id="Group_4804" data-name="Group 4804" transform="translate(8.441 8.98)">
      <rect id="Rectangle_3240" data-name="Rectangle 3240" width="31" height="32" transform="translate(3.563 2.836)" fill="#5b24ec"/>
      <g id="Group_4803" data-name="Group 4803" clip-path="url(#clip-path)">
        <path id="Path_4874" data-name="Path 4874" d="M32,0H8.421A8.421,8.421,0,0,0,0,8.421V32a8.421,8.421,0,0,0,8.421,8.421H32A8.42,8.42,0,0,0,40.419,32V8.421A8.42,8.42,0,0,0,32,0M13.473,32H8.421V13.473h5.052ZM10.948,11.337a2.971,2.971,0,1,1,2.945-2.971,2.96,2.96,0,0,1-2.945,2.971M33.682,32H28.63V22.56c0-5.672-6.736-5.243-6.736,0V32H16.841V13.473h5.052v2.972c2.351-4.355,11.789-4.677,11.789,4.17Z" transform="translate(0 -0.301)" fill="#fff"/>
        <g id="Rectangle_3238" data-name="Rectangle 3238" transform="translate(69.938 0.369)" fill="#5924ea" stroke="#707070" stroke-width="1">
          <rect width="57.756" height="51.192" stroke="none"/>
          <rect x="0.5" y="0.5" width="56.756" height="50.192" fill="none"/>
        </g>
      </g>
    </g>
  </g>
</svg>