<svg id="linkedin_blue" data-name="linkedin blue" xmlns="http://www.w3.org/2000/svg" xmlns:xlink="http://www.w3.org/1999/xlink" width="33.676" height="33.676" viewBox="0 0 33.676 33.676">
  <defs>
    <clipPath id="clip-path">
      <rect id="Rectangle_3207" data-name="Rectangle 3207" width="33.676" height="33.676" transform="translate(0 0)" fill="#3524c6"/>
    </clipPath>
  </defs>
  <g id="Group_4738" data-name="Group 4738" clip-path="url(#clip-path)">
    <path id="Path_4829" data-name="Path 4829" d="M26.86,0H7.069A7.069,7.069,0,0,0,0,7.069V26.86a7.069,7.069,0,0,0,7.069,7.069H26.86a7.068,7.068,0,0,0,7.069-7.069V7.069A7.068,7.068,0,0,0,26.86,0M11.31,26.86H7.069V11.31H11.31ZM9.19,9.517a2.494,2.494,0,1,1,2.473-2.494A2.485,2.485,0,0,1,9.19,9.517M28.274,26.86H24.033V18.938c0-4.761-5.655-4.4-5.655,0V26.86H14.137V11.31h4.241v2.5c1.974-3.656,9.9-3.926,9.9,3.5Z" transform="translate(0 -0.253)" fill="#3524c6"/>
  </g>
</svg>
