<svg id="Open_Health" data-name="Open Health" xmlns="http://www.w3.org/2000/svg" xmlns:xlink="http://www.w3.org/1999/xlink" width="128.653" height="106.646" viewBox="0 0 128.653 106.646">
  <defs>
    <clipPath id="clip-path">
      <rect id="Rectangle_2617" data-name="Rectangle 2617" width="63.308" height="54.94" transform="translate(0 0)" fill="none"/>
    </clipPath>
    <clipPath id="clip-path-2">
      <rect id="Rectangle_2619" data-name="Rectangle 2619" width="21.106" height="22.373" transform="matrix(1, 0.017, -0.017, 1, 0.39, 0)" fill="none" stroke="#fff" stroke-width="1"/>
    </clipPath>
    <clipPath id="clip-path-3">
      <rect id="Rectangle_2618" data-name="Rectangle 2618" width="21.081" height="22.347" transform="matrix(1, 0.017, -0.017, 1, 0.39, 0)" fill="none" stroke="#fff" stroke-width="1"/>
    </clipPath>
  </defs>
  <g id="Group_3798" data-name="Group 3798">
    <path id="Path_2796" data-name="Path 2796" d="M-24459.281-405.36l5.945-7.03" transform="translate(24555.133 445.892)" fill="none" stroke="#fff" stroke-width="1.5"/>
    <path id="Path_3833" data-name="Path 3833" d="M-24459-411.967l5.957,5.865" transform="translate(24554.242 424.517)" fill="none" stroke="#fff" stroke-width="1.5"/>
    <path id="Path_2799" data-name="Path 2799" d="M0,14.08,12.116,0" transform="translate(24.162 83.117) rotate(16)" fill="none" stroke="#fff" stroke-width="1.5"/>
    <path id="Path_2797" data-name="Path 2797" d="M0,8.127,9.246,0" transform="matrix(-0.438, -0.899, 0.899, -0.438, 97.941, 89.465)" fill="none" stroke="#fff" stroke-width="1.5"/>
    <path id="Path_2798" data-name="Path 2798" d="M0,9.634,7.62,0" transform="translate(30.286 29.773) rotate(-97)" fill="none" stroke="#fff" stroke-width="1.5"/>
    <path id="Path_3834" data-name="Path 3834" d="M0,0,5.364,5.378" transform="translate(11.144 29.542) rotate(-97)" fill="none" stroke="#fff" stroke-width="1.5"/>
    <g id="Ellipse_428" data-name="Ellipse 428" transform="translate(96.386 15.376)" fill="none" stroke="#fff" stroke-width="1.5">
      <ellipse cx="10.983" cy="10.983" rx="10.983" ry="10.983" stroke="none"/>
      <ellipse cx="10.983" cy="10.983" rx="10.233" ry="10.233" fill="none"/>
    </g>
    <g id="Ellipse_430" data-name="Ellipse 430" transform="translate(100.733 82.077) rotate(-19)" fill="none" stroke="#fff" stroke-width="1.5">
      <ellipse cx="10.983" cy="10.983" rx="10.983" ry="10.983" stroke="none"/>
      <ellipse cx="10.983" cy="10.983" rx="10.233" ry="10.233" fill="none"/>
    </g>
    <g id="Ellipse_429" data-name="Ellipse 429" transform="translate(83.207 0)" fill="none" stroke="#fff" stroke-width="1.5">
      <ellipse cx="7.688" cy="7.688" rx="7.688" ry="7.688" stroke="none"/>
      <ellipse cx="7.688" cy="7.688" rx="6.938" ry="6.938" fill="none"/>
    </g>
    <g id="Ellipse_433" data-name="Ellipse 433" transform="translate(7.693 92.368)" fill="none" stroke="#fff" stroke-width="1.5">
      <ellipse cx="7.139" cy="7.139" rx="7.139" ry="7.139" stroke="none"/>
      <ellipse cx="7.139" cy="7.139" rx="6.389" ry="6.389" fill="none"/>
    </g>
    <g id="Ellipse_432" data-name="Ellipse 432" transform="translate(0 27.174)" fill="none" stroke="#fff" stroke-width="1.5">
      <ellipse cx="7.139" cy="7.139" rx="7.139" ry="7.139" stroke="none"/>
      <ellipse cx="7.139" cy="7.139" rx="6.389" ry="6.389" fill="none"/>
    </g>
    <g id="Ellipse_431" data-name="Ellipse 431" transform="translate(10.983 5.209)" fill="none" stroke="#fff" stroke-width="1.5">
      <ellipse cx="10.983" cy="10.983" rx="10.983" ry="10.983" stroke="none"/>
      <ellipse cx="10.983" cy="10.983" rx="10.233" ry="10.233" fill="none"/>
    </g>
    <g id="Ellipse_434" data-name="Ellipse 434" transform="translate(22.803 19.61)" fill="none" stroke="#fff" stroke-width="1.5">
      <ellipse cx="39.538" cy="39.538" rx="39.538" ry="39.538" stroke="none"/>
      <ellipse cx="39.538" cy="39.538" rx="38.788" ry="38.788" fill="none"/>
    </g>
  </g>
  <g id="Group_3849" data-name="Group 3849" transform="translate(31.798 36.273)">
    <g id="Group_3848" data-name="Group 3848" transform="translate(0 0)">
      <g id="Group_3840" data-name="Group 3840" transform="translate(0 0)" clip-path="url(#clip-path)">
        <path id="Path_3758" data-name="Path 3758" d="M26.989,7.632c1.238-1.208,2.23-2.206,3.252-3.17a13.593,13.593,0,0,1,18.776-.244,13.653,13.653,0,0,1,1.254,18.947c-.559.684-1.174,1.326-1.8,1.953Q38.8,34.8,29.116,44.477c-.621.62-1.286,1.2-2.044,1.9a20.413,20.413,0,0,1-1.67-1.344Q15.145,34.8,4.912,24.551A13.772,13.772,0,0,1,.5,14.1,13.035,13.035,0,0,1,8.7,1.8C13.947-.577,18.911.376,23.3,4.1,24.5,5.129,25.591,6.288,26.989,7.632Z" transform="translate(3.179 3.179)" fill="none" stroke="#fff" stroke-width="1"/>
      </g>
      <g id="Group_3842" data-name="Group 3842" transform="translate(43.564 1.766)" clip-path="url(#clip-path-2)">
        <path id="Path_3761" data-name="Path 3761" d="M7.353,14.768H8.939c.843,0,1.187-.335,1.19-1.168,0-1,.018-2.01-.007-3.015-.009-.377.126-.468.478-.461,1.031.019,2.063.013,3.094,0a.965.965,0,0,0,1.072-1.084c0-1.058,0-2.116,0-3.174,0-.913-.32-1.23-1.247-1.231-.978,0-1.957-.017-2.935.008-.377.009-.468-.125-.462-.477.019-1.031.013-2.063,0-3.094A.965.965,0,0,0,9.043,0C7.972,0,6.9,0,5.83,0,4.988,0,4.643.337,4.639,1.169c0,1-.018,2.01.007,3.015.009.377-.126.468-.478.461-1.031-.019-2.063-.013-3.094,0A.966.966,0,0,0,0,5.726C0,6.8,0,7.868,0,8.939c0,.842.336,1.187,1.168,1.19.992,0,1.984.023,2.975-.009.418-.013.511.132.5.52-.024,1.031-.016,2.063,0,3.094a.952.952,0,0,0,1.044,1.032c.555.006,1.111,0,1.666,0" transform="translate(3.973 5.274)" fill="#b15aff" stroke="#fff" stroke-width="1"/>
      </g>
    </g>
    <g id="Group_3839" data-name="Group 3839" transform="translate(5.544 14.246)">
      <g id="Group_3837" data-name="Group 3837" transform="translate(0 12.896)">
        <g id="Group_3841" data-name="Group 3841" transform="translate(0 0)" clip-path="url(#clip-path-3)">
          <path id="Path_3760" data-name="Path 3760" d="M7.344,14.751H8.929c.842,0,1.185-.334,1.189-1.166,0-1,.017-2.008-.007-3.011-.009-.377.126-.467.477-.461,1.03.019,2.06.013,3.09,0A.963.963,0,0,0,14.75,9.033c0-1.057,0-2.113,0-3.17,0-.912-.32-1.228-1.245-1.23-.977,0-1.955-.017-2.932.008-.376.009-.468-.125-.461-.477.019-1.03.013-2.06,0-3.09A.964.964,0,0,0,9.033,0c-1.07,0-2.14,0-3.21,0C4.982,0,4.637.336,4.634,1.167c0,1-.017,2.008.007,3.011.009.377-.126.467-.477.461-1.03-.019-2.06-.013-3.09,0A.964.964,0,0,0,0,5.719c0,1.07,0,2.14,0,3.209,0,.841.336,1.185,1.167,1.189.991,0,1.982.023,2.971-.009.417-.013.51.132.5.519-.024,1.03-.016,2.06,0,3.09A.951.951,0,0,0,5.68,14.749c.555.006,1.109,0,1.664,0" transform="translate(3.969 5.268)" fill="#c859ff" stroke="#fff" stroke-width="1"/>
        </g>
      </g>
      <path id="Path_3759" data-name="Path 3759" d="M288.294,1317.394s-15.166.727-15.347.785-1.626-12.1-1.695-12.365-4.856,22.4-4.767,22.341-3.439-15.022-3.4-14.717-2.564,7.444-2.543,7.236c0,0-5.465-14.847-5.793-14.86s-3.831,9.774-4.081,9.874-11.134,0-11.134,0" transform="translate(-239.531 -1305.812)" fill="none" stroke="#fff" stroke-width="1"/>
    </g>
  </g>
</svg>