<svg xmlns="http://www.w3.org/2000/svg" xmlns:xlink="http://www.w3.org/1999/xlink" width="64" height="64" viewBox="0 0 64 64">
  <defs>
    <filter id="Ellipse_438" x="0" y="0" width="64" height="64" filterUnits="userSpaceOnUse">
      <feOffset dy="3" input="SourceAlpha"/>
      <feGaussianBlur stdDeviation="3" result="blur"/>
      <feFlood flood-color="#5b24ec" flood-opacity="0.122"/>
      <feComposite operator="in" in2="blur"/>
      <feComposite in="SourceGraphic"/>
    </filter>
    <clipPath id="clip-path">
      <rect id="Rectangle_2832" data-name="Rectangle 2832" width="26.858" height="23.412" fill="none"/>
    </clipPath>
  </defs>
  <g id="purchase_icon" transform="translate(9 6)">
    <g id="purchase_via_api" data-name="purchase via api">
      <g id="Group_2652" data-name="Group 2652">
        <g transform="matrix(1, 0, 0, 1, -9, -6)" filter="url(#Ellipse_438)">
          <g id="Ellipse_438-2" data-name="Ellipse 438" transform="translate(9 6)" fill="#fff" stroke="#3328c3" stroke-width="1">
            <circle cx="23" cy="23" r="23" stroke="none"/>
            <circle cx="23" cy="23" r="22.5" fill="none"/>
          </g>
        </g>
      </g>
    </g>
    <g id="Group_4143" data-name="Group 4143" transform="translate(8.377 14)">
      <g id="Group_4145" data-name="Group 4145" clip-path="url(#clip-path)">
        <path id="Path_4063" data-name="Path 4063" d="M5.046,2.847H25.739c.125,0,.251-.005.376,0a.7.7,0,0,1,.72.911c-.321,1.678-.652,3.354-.979,5.031q-.476,2.446-.951,4.892c-.16.82-.3.919-1.115.964-1.878.1-3.755.23-5.632.344-1.236.075-2.473.144-3.709.216q-3.311.194-6.622.391c-.17.01-.337.048-.578.084v1.269c0,1.027,0,1.027,1.011,1.027H21.91c.611,0,1.222-.011,1.833.007a.681.681,0,0,1,.689.636.7.7,0,0,1-.687.694c-.093.009-.188.005-.282.005H7.7c-.157,0-.315.005-.47-.008a1.353,1.353,0,0,1-1.281-1.171,2.274,2.274,0,0,1-.041-.514,21.867,21.867,0,0,0-.51-5.413C4.727,8.817,4.13,5.4,3.5,2c-.006-.031-.012-.062-.018-.092-.112-.555-.112-.557-.662-.559-.628,0-1.255,0-1.883,0a1.862,1.862,0,0,1-.421-.032A.68.68,0,0,1,0,.619.667.667,0,0,1,.57.017,1.629,1.629,0,0,1,.851,0c.8,0,1.6-.007,2.4,0A1.386,1.386,0,0,1,4.712,1.2c.115.533.217,1.07.334,1.648" transform="translate(0.001 0.001)" fill="#3328c3"/>
        <path id="Path_4064" data-name="Path 4064" d="M219.123,212.045a1.8,1.8,0,1,1-3.608-.047,1.8,1.8,0,0,1,3.608.047" transform="translate(-195.227 -190.431)" fill="#3328c3"/>
        <path id="Path_4065" data-name="Path 4065" d="M66.89,210.223a1.811,1.811,0,1,1,0,3.622,1.811,1.811,0,0,1,0-3.622" transform="translate(-58.965 -190.433)" fill="#3328c3"/>
      </g>
    </g>
  </g>
</svg>
