<svg xmlns="http://www.w3.org/2000/svg" xmlns:xlink="http://www.w3.org/1999/xlink" width="66.093" height="51.771" viewBox="0 0 66.093 51.771">
  <defs>
    <filter id="Path_3972" x="0" y="0" width="66.093" height="51.771" filterUnits="userSpaceOnUse">
      <feOffset dy="3" input="SourceAlpha"/>
      <feGaussianBlur stdDeviation="3" result="blur"/>
      <feFlood flood-opacity="0.161"/>
      <feComposite operator="in" in2="blur"/>
      <feComposite in="SourceGraphic"/>
    </filter>
    <clipPath id="clip-path">
      <rect id="Rectangle_2779" data-name="Rectangle 2779" width="4.246" height="7.693" fill="#3328c3"/>
    </clipPath>
  </defs>
  <g id="sample_icon" transform="translate(6.524 6.5)">
    <g id="Group_4091" data-name="Group 4091" transform="translate(2.976)">
      <g transform="matrix(1, 0, 0, 1, -9.5, -6.5)" filter="url(#Path_3972)">
        <path id="Path_3972-2" data-name="Path 3972" d="M46.338,33.271H1.756A1.225,1.225,0,0,1,.5,32.079V1.693A1.226,1.226,0,0,1,1.756.5H46.338a1.225,1.225,0,0,1,1.255,1.193V32.079A1.225,1.225,0,0,1,46.338,33.271Z" transform="translate(9 6)" fill="#fff" stroke="#3328c3" stroke-width="1"/>
      </g>
      <path id="Path_3973" data-name="Path 3973" d="M8.156,3.362l-.874.874L4.659,6.858l-.874.874.874.874,3.5,3.5.874-.874-3.5-3.5L8.156,5.11l2.623,2.623L9.03,9.481l.874.874,1.748-1.748.874-.874-.874-.874L9.03,4.236Z" transform="translate(-0.499 0.797)" fill="#3328c3"/>
      <rect id="Rectangle_2774" data-name="Rectangle 2774" width="1.36" height="1.36" transform="matrix(0.707, -0.707, 0.707, 0.707, 6.695, 8.53)" fill="#3328c3"/>
      <rect id="Rectangle_2775" data-name="Rectangle 2775" width="19.123" height="1.6" transform="translate(3.424 16.731)" fill="#3328c3"/>
      <rect id="Rectangle_2776" data-name="Rectangle 2776" width="19.123" height="1.6" transform="translate(3.424 20.133)" fill="#3328c3"/>
      <rect id="Rectangle_2784" data-name="Rectangle 2784" width="19.123" height="1.6" transform="translate(3.424 26.698)" fill="#3328c3"/>
      <rect id="Rectangle_2777" data-name="Rectangle 2777" width="19.123" height="1.6" transform="translate(3.424 23.295)" fill="#3328c3"/>
      <g id="Group_4068" data-name="Group 4068" transform="translate(39.28 20.903)" style="mix-blend-mode: normal;isolation: isolate">
        <g id="Group_4067" data-name="Group 4067" transform="translate(0 0)">
          <g id="Group_4066" data-name="Group 4066" clip-path="url(#clip-path)">
            <rect id="Rectangle_2778" data-name="Rectangle 2778" width="3.652" height="7.099" transform="translate(0.296 0.297)" fill="#3328c3" stroke="#fff" stroke-width="0.594"/>
          </g>
        </g>
      </g>
      <rect id="Rectangle_2780" data-name="Rectangle 2780" width="3.652" height="8.472" transform="translate(34.099 19.825)" fill="#3328c3" stroke="#fff" stroke-width="0.594"/>
      <rect id="Rectangle_2781" data-name="Rectangle 2781" width="3.652" height="15.397" transform="translate(28.621 12.902)" fill="#3328c3" stroke="#fff" stroke-width="0.594"/>
    </g>
    <g id="Group_4090" data-name="Group 4090" transform="translate(0 2.976)">
      <path id="Path_3972-3" data-name="Path 3972" d="M46.338,33.271H1.756A1.225,1.225,0,0,1,.5,32.079V1.693A1.226,1.226,0,0,1,1.756.5H46.338a1.225,1.225,0,0,1,1.255,1.193V32.079A1.225,1.225,0,0,1,46.338,33.271Z" transform="translate(-0.5 -0.5)" fill="#fff" stroke="#3328c3" stroke-width="1"/>
      <path id="Path_3973-2" data-name="Path 3973" d="M8.156,3.362l-.874.874L4.659,6.858l-.874.874.874.874,3.5,3.5.874-.874-3.5-3.5L8.156,5.11l2.623,2.623L9.03,9.481l.874.874,1.748-1.748.874-.874-.874-.874L9.03,4.236Z" transform="translate(-0.499 0.797)" fill="#3328c3"/>
      <rect id="Rectangle_2774-2" data-name="Rectangle 2774" width="1.36" height="1.36" transform="matrix(0.707, -0.707, 0.707, 0.707, 6.695, 8.53)" fill="#3328c3"/>
      <rect id="Rectangle_2775-2" data-name="Rectangle 2775" width="19.123" height="1.6" transform="translate(3.424 16.731)" fill="#3328c3"/>
      <rect id="Rectangle_2776-2" data-name="Rectangle 2776" width="19.123" height="1.6" transform="translate(3.424 20.133)" fill="#3328c3"/>
      <rect id="Rectangle_2784-2" data-name="Rectangle 2784" width="19.123" height="1.6" transform="translate(3.424 26.698)" fill="#3328c3"/>
      <rect id="Rectangle_2777-2" data-name="Rectangle 2777" width="19.123" height="1.6" transform="translate(3.424 23.295)" fill="#3328c3"/>
      <g id="Group_4068-2" data-name="Group 4068" transform="translate(39.28 20.903)" style="mix-blend-mode: normal;isolation: isolate">
        <g id="Group_4067-2" data-name="Group 4067" transform="translate(0 0)">
          <g id="Group_4066-2" data-name="Group 4066" clip-path="url(#clip-path)">
            <rect id="Rectangle_2778-2" data-name="Rectangle 2778" width="3.652" height="7.099" transform="translate(0.296 0.297)" fill="#3328c3" stroke="#fff" stroke-width="0.594"/>
          </g>
        </g>
      </g>
      <rect id="Rectangle_2780-2" data-name="Rectangle 2780" width="3.652" height="8.472" transform="translate(34.099 19.825)" fill="#3328c3" stroke="#fff" stroke-width="0.594"/>
      <rect id="Rectangle_2781-2" data-name="Rectangle 2781" width="3.652" height="15.397" transform="translate(28.621 12.902)" fill="#3328c3" stroke="#fff" stroke-width="0.594"/>
    </g>
  </g>
</svg>
