<svg xmlns="http://www.w3.org/2000/svg" xmlns:xlink="http://www.w3.org/1999/xlink" width="53" height="53" viewBox="0 0 53 53">
  <defs>
    <clipPath id="clip-path">
      <rect id="Rectangle_2626" data-name="Rectangle 2626" width="27.804" height="25.719" fill="#5724e9"/>
    </clipPath>
  </defs>
  <g id="tool_icon" transform="translate(1.5 1.5)">
    <g id="Group_5872" data-name="Group 5872" transform="translate(0.481 3.22)">
      <g id="Group_5886" data-name="Group 5886" transform="translate(0 -3)">
        <path id="Path_2478" data-name="Path 2478" d="M116.376,53.565a25,25,0,1,1-25-25,25,25,0,0,1,25,25" transform="translate(-66.857 -28.785)" fill="#fff" stroke="#000" stroke-width="3"/>
        <g id="Group_5863" data-name="Group 5863" transform="translate(11.02 12.279)">
          <g id="Group_3878" data-name="Group 3878" transform="translate(0 0)" clip-path="url(#clip-path)">
            <path id="Path_3780" data-name="Path 3780" d="M0,21.775a.765.765,0,0,0,.036-.137,2.518,2.518,0,0,1,.9-1.725q1.655-1.479,3.308-2.96,1.531-1.37,3.063-2.74c.716-.644,1.428-1.293,2.146-1.936.691-.619,1.387-1.233,2.079-1.851q1.737-1.549,3.474-3.1A.272.272,0,0,0,15.1,7a4.912,4.912,0,0,1,.349-3.879A5.551,5.551,0,0,1,17.621.895,6.842,6.842,0,0,1,20.1.04c.06-.009.118-.027.176-.04h1.377c.224.04.449.079.672.12.08.015.157.038.274.068-.079.082-.129.139-.185.19q-1.547,1.386-3.1,2.771a.29.29,0,0,0-.1.345c.245.8.479,1.6.718,2.4.158.529.014.4.594.544.91.232,1.829.439,2.743.663a.29.29,0,0,0,.3-.087Q25.034,5.7,26.5,4.383c.118-.106.23-.218.374-.353a.935.935,0,0,1,.09.167,5.257,5.257,0,0,1,.082,2.2,5.109,5.109,0,0,1-1.083,2.326,5.758,5.758,0,0,1-2.282,1.7,6.924,6.924,0,0,1-2.632.553,6.2,6.2,0,0,1-1.43-.146.465.465,0,0,0-.463.128c-1.047.949-2.105,1.888-3.157,2.832s-2.093,1.881-3.14,2.819Q11.42,17.9,9.976,19.194,8.518,20.5,7.062,21.81c-.73.653-1.446,1.318-2.2,1.95a2.96,2.96,0,0,1-2.29.633A2.79,2.79,0,0,1,.342,23a2.126,2.126,0,0,1-.3-.94,1.515,1.515,0,0,0-.041-.2Z" transform="translate(0 0)" fill="#5724e9"/>
            <path id="Path_3781" data-name="Path 3781" d="M26.462,30.682c-.4-.366-.8-.735-1.2-1.1q-1.343-1.206-2.691-2.408l-2.919-2.611c-.286-.256-.569-.516-.858-.77a.356.356,0,0,1-.141-.307,2.383,2.383,0,0,0-.376-1.418c-.129-.2-.119-.208.056-.367L20.8,19.451c.027-.024.053-.049.081-.073.159-.139.162-.143.347-.045a3.163,3.163,0,0,0,1.621.366.5.5,0,0,1,.384.138q1.43,1.29,2.868,2.572l3.211,2.874,1.376,1.235c.07.062.147.12.221.179v.082q-1.113.991-2.225,1.983-1.068.958-2.133,1.92Z" transform="translate(-3.108 -4.963)" fill="#5724e9"/>
            <path id="Path_3782" data-name="Path 3782" d="M0,1.644l.475-.416c.154-.135.159-.143.349-.037.474.262.943.532,1.414.8.735.416,1.479.822,2.2,1.259a3.133,3.133,0,0,1,.6.558c.219.228.414.474.634.7.129.134.169.215-.022.331a.546.546,0,0,0-.095.108L10.518,9.4c-.069.068-.117.12-.169.167q-.459.416-.919.831c-.158.142-.166.143-.327,0L5.8,7.433q-.68-.61-1.361-1.22c-.043-.039-.09-.073-.153-.122l-.305.216c-.2-.14-.4-.282-.6-.425s-.381-.3-.588-.425a2.881,2.881,0,0,1-.765-.884c-.487-.679-.968-1.36-1.45-2.041C.46,2.376.356,2.216.242,2.062c-.075-.1-.161-.2-.242-.3Z" transform="translate(0 -0.288)" fill="#5724e9"/>
          </g>
        </g>
      </g>
    </g>
  </g>
</svg>
