<svg xmlns="http://www.w3.org/2000/svg" xmlns:xlink="http://www.w3.org/1999/xlink" width="67.349" height="67.349" viewBox="0 0 67.349 67.349">
  <defs>
    <filter id="Ellipse_649" x="0" y="0" width="67.349" height="67.349" filterUnits="userSpaceOnUse">
      <feOffset dy="3" input="SourceAlpha"/>
      <feGaussianBlur stdDeviation="3" result="blur"/>
      <feFlood flood-opacity="0.161"/>
      <feComposite operator="in" in2="blur"/>
      <feComposite in="SourceGraphic"/>
    </filter>
  </defs>
  <g id="Youtube" transform="translate(9 6)">
    <g id="Group_9318" data-name="Group 9318">
      <g transform="matrix(1, 0, 0, 1, -9, -6)" filter="url(#Ellipse_649)">
        <ellipse id="Ellipse_649-2" data-name="Ellipse 649" cx="24.674" cy="24.674" rx="24.674" ry="24.674" transform="translate(9 6)" fill="#fff"/>
      </g>
      <path id="Path_23176" data-name="Path 23176" d="M40.712,37.683A4.229,4.229,0,0,0,37.75,34.7c-2.6-.7-13.043-.7-13.043-.7s-10.442,0-13.062.7a4.2,4.2,0,0,0-2.962,2.981A44.893,44.893,0,0,0,8,45.771a43.707,43.707,0,0,0,.7,8.088,4.229,4.229,0,0,0,2.962,2.981c2.6.7,13.043.7,13.043.7s10.442,0,13.062-.7a4.2,4.2,0,0,0,2.962-2.981,44.894,44.894,0,0,0,.683-8.088A43.707,43.707,0,0,0,40.712,37.683Z" transform="translate(-0.033 -21.096)" fill="#5724e8"/>
      <path id="Path_23177" data-name="Path 23177" d="M78,79.748V69.8l8.733,4.974Z" transform="translate(-56.743 -50.1)" fill="#fff"/>
    </g>
  </g>
</svg>
