<svg xmlns="http://www.w3.org/2000/svg" xmlns:xlink="http://www.w3.org/1999/xlink" width="67.349" height="67.349" viewBox="0 0 67.349 67.349">
  <defs>
    <filter id="Ellipse_649" x="0" y="0" width="67.349" height="67.349" filterUnits="userSpaceOnUse">
      <feOffset dy="3" input="SourceAlpha"/>
      <feGaussianBlur stdDeviation="3" result="blur"/>
      <feFlood flood-opacity="0.161"/>
      <feComposite operator="in" in2="blur"/>
      <feComposite in="SourceGraphic"/>
    </filter>
    <clipPath id="clip-path">
      <rect id="Rectangle_3239" data-name="Rectangle 3239" width="34.732" height="34.732" fill="none"/>
    </clipPath>
  </defs>
  <g id="Linkedin" transform="translate(9 6)">
    <g transform="matrix(1, 0, 0, 1, -9, -6)" filter="url(#Ellipse_649)">
      <ellipse id="Ellipse_649-2" data-name="Ellipse 649" cx="24.674" cy="24.674" rx="24.674" ry="24.674" transform="translate(9 6)" fill="#fff"/>
    </g>
    <g id="Group_4804" data-name="Group 4804" transform="translate(7.309 7.775)">
      <rect id="Rectangle_3240" data-name="Rectangle 3240" width="26.839" height="27.704" transform="translate(3.084 2.455)" fill="#5b24ec"/>
      <g id="Group_4803" data-name="Group 4803" clip-path="url(#clip-path)">
        <path id="Path_4874" data-name="Path 4874" d="M27.7,0H7.29A7.291,7.291,0,0,0,0,7.29V27.7a7.291,7.291,0,0,0,7.29,7.29H27.7a7.29,7.29,0,0,0,7.29-7.29V7.29A7.29,7.29,0,0,0,27.7,0M11.664,27.7H7.29V11.664h4.374ZM9.479,9.816a2.572,2.572,0,1,1,2.55-2.572,2.563,2.563,0,0,1-2.55,2.572M29.161,27.7H24.787V19.532c0-4.911-5.832-4.539-5.832,0V27.7H14.58V11.664h4.374v2.573c2.035-3.77,10.206-4.049,10.206,3.61Z" transform="translate(0 -0.261)" fill="#fff"/>
        <g id="Rectangle_3238" data-name="Rectangle 3238" transform="translate(60.55 0.32)" fill="#5924ea" stroke="#707070" stroke-width="1">
          <rect width="50.003" height="44.321" stroke="none"/>
          <rect x="0.5" y="0.5" width="49.003" height="43.321" fill="none"/>
        </g>
      </g>
    </g>
  </g>
</svg>
